<?xml version="1.0" encoding="utf-8" standalone="no"?>
<!DOCTYPE svg PUBLIC "-//W3C//DTD SVG 1.1//EN"
  "http://www.w3.org/Graphics/SVG/1.1/DTD/svg11.dtd">
<!-- Created with matplotlib (https://matplotlib.org/) -->
<svg height="845.194375pt" version="1.1" viewBox="0 0 1061.424219 845.194375" width="1061.424219pt" xmlns="http://www.w3.org/2000/svg" xmlns:xlink="http://www.w3.org/1999/xlink">
 <defs>
  <style type="text/css">
*{stroke-linecap:butt;stroke-linejoin:round;}
  </style>
 </defs>
 <g id="figure_1">
  <g id="patch_1">
   <path d="M 0 845.194375 
L 1061.424219 845.194375 
L 1061.424219 0 
L 0 0 
z
" style="fill:#ffffff;"/>
  </g>
  <g id="axes_1">
   <g id="patch_2">
    <path d="M 64.374219 251.277187 
L 522.324219 251.277187 
L 522.324219 26.877187 
L 64.374219 26.877187 
z
" style="fill:#ffffff;"/>
   </g>
   <g id="matplotlib.axis_1">
    <g id="xtick_1">
     <g id="line2d_1">
      <path clip-path="url(#p633e325c1c)" d="M 153.814004 251.277187 
L 153.814004 26.877187 
" style="fill:none;stroke:#b0b0b0;stroke-linecap:square;stroke-width:0.8;"/>
     </g>
     <g id="line2d_2">
      <defs>
       <path d="M 0 0 
L 0 3.5 
" id="mfe46ee6081" style="stroke:#000000;stroke-width:0.8;"/>
      </defs>
      <g>
       <use style="stroke:#000000;stroke-width:0.8;" x="153.814004" xlink:href="#mfe46ee6081" y="251.277187"/>
      </g>
     </g>
     <g id="text_1">
      <!-- 01-03-2020 -->
      <defs>
       <path d="M 31.78125 66.40625 
Q 24.171875 66.40625 20.328125 58.90625 
Q 16.5 51.421875 16.5 36.375 
Q 16.5 21.390625 20.328125 13.890625 
Q 24.171875 6.390625 31.78125 6.390625 
Q 39.453125 6.390625 43.28125 13.890625 
Q 47.125 21.390625 47.125 36.375 
Q 47.125 51.421875 43.28125 58.90625 
Q 39.453125 66.40625 31.78125 66.40625 
z
M 31.78125 74.21875 
Q 44.046875 74.21875 50.515625 64.515625 
Q 56.984375 54.828125 56.984375 36.375 
Q 56.984375 17.96875 50.515625 8.265625 
Q 44.046875 -1.421875 31.78125 -1.421875 
Q 19.53125 -1.421875 13.0625 8.265625 
Q 6.59375 17.96875 6.59375 36.375 
Q 6.59375 54.828125 13.0625 64.515625 
Q 19.53125 74.21875 31.78125 74.21875 
z
" id="DejaVuSans-48"/>
       <path d="M 12.40625 8.296875 
L 28.515625 8.296875 
L 28.515625 63.921875 
L 10.984375 60.40625 
L 10.984375 69.390625 
L 28.421875 72.90625 
L 38.28125 72.90625 
L 38.28125 8.296875 
L 54.390625 8.296875 
L 54.390625 0 
L 12.40625 0 
z
" id="DejaVuSans-49"/>
       <path d="M 4.890625 31.390625 
L 31.203125 31.390625 
L 31.203125 23.390625 
L 4.890625 23.390625 
z
" id="DejaVuSans-45"/>
       <path d="M 40.578125 39.3125 
Q 47.65625 37.796875 51.625 33 
Q 55.609375 28.21875 55.609375 21.1875 
Q 55.609375 10.40625 48.1875 4.484375 
Q 40.765625 -1.421875 27.09375 -1.421875 
Q 22.515625 -1.421875 17.65625 -0.515625 
Q 12.796875 0.390625 7.625 2.203125 
L 7.625 11.71875 
Q 11.71875 9.328125 16.59375 8.109375 
Q 21.484375 6.890625 26.8125 6.890625 
Q 36.078125 6.890625 40.9375 10.546875 
Q 45.796875 14.203125 45.796875 21.1875 
Q 45.796875 27.640625 41.28125 31.265625 
Q 36.765625 34.90625 28.71875 34.90625 
L 20.21875 34.90625 
L 20.21875 43.015625 
L 29.109375 43.015625 
Q 36.375 43.015625 40.234375 45.921875 
Q 44.09375 48.828125 44.09375 54.296875 
Q 44.09375 59.90625 40.109375 62.90625 
Q 36.140625 65.921875 28.71875 65.921875 
Q 24.65625 65.921875 20.015625 65.03125 
Q 15.375 64.15625 9.8125 62.3125 
L 9.8125 71.09375 
Q 15.4375 72.65625 20.34375 73.4375 
Q 25.25 74.21875 29.59375 74.21875 
Q 40.828125 74.21875 47.359375 69.109375 
Q 53.90625 64.015625 53.90625 55.328125 
Q 53.90625 49.265625 50.4375 45.09375 
Q 46.96875 40.921875 40.578125 39.3125 
z
" id="DejaVuSans-51"/>
       <path d="M 19.1875 8.296875 
L 53.609375 8.296875 
L 53.609375 0 
L 7.328125 0 
L 7.328125 8.296875 
Q 12.9375 14.109375 22.625 23.890625 
Q 32.328125 33.6875 34.8125 36.53125 
Q 39.546875 41.84375 41.421875 45.53125 
Q 43.3125 49.21875 43.3125 52.78125 
Q 43.3125 58.59375 39.234375 62.25 
Q 35.15625 65.921875 28.609375 65.921875 
Q 23.96875 65.921875 18.8125 64.3125 
Q 13.671875 62.703125 7.8125 59.421875 
L 7.8125 69.390625 
Q 13.765625 71.78125 18.9375 73 
Q 24.125 74.21875 28.421875 74.21875 
Q 39.75 74.21875 46.484375 68.546875 
Q 53.21875 62.890625 53.21875 53.421875 
Q 53.21875 48.921875 51.53125 44.890625 
Q 49.859375 40.875 45.40625 35.40625 
Q 44.1875 33.984375 37.640625 27.21875 
Q 31.109375 20.453125 19.1875 8.296875 
z
" id="DejaVuSans-50"/>
      </defs>
      <g transform="translate(110.227285 269.674844)scale(0.15 -0.15)">
       <use xlink:href="#DejaVuSans-48"/>
       <use x="63.623047" xlink:href="#DejaVuSans-49"/>
       <use x="127.246094" xlink:href="#DejaVuSans-45"/>
       <use x="163.330078" xlink:href="#DejaVuSans-48"/>
       <use x="226.953125" xlink:href="#DejaVuSans-51"/>
       <use x="290.576172" xlink:href="#DejaVuSans-45"/>
       <use x="326.660156" xlink:href="#DejaVuSans-50"/>
       <use x="390.283203" xlink:href="#DejaVuSans-48"/>
       <use x="453.90625" xlink:href="#DejaVuSans-50"/>
       <use x="517.529297" xlink:href="#DejaVuSans-48"/>
      </g>
     </g>
    </g>
    <g id="xtick_2">
     <g id="line2d_3">
      <path clip-path="url(#p633e325c1c)" d="M 295.636681 251.277187 
L 295.636681 26.877187 
" style="fill:none;stroke:#b0b0b0;stroke-linecap:square;stroke-width:0.8;"/>
     </g>
     <g id="line2d_4">
      <g>
       <use style="stroke:#000000;stroke-width:0.8;" x="295.636681" xlink:href="#mfe46ee6081" y="251.277187"/>
      </g>
     </g>
     <g id="text_2">
      <!-- 01-04-2020 -->
      <defs>
       <path d="M 37.796875 64.3125 
L 12.890625 25.390625 
L 37.796875 25.390625 
z
M 35.203125 72.90625 
L 47.609375 72.90625 
L 47.609375 25.390625 
L 58.015625 25.390625 
L 58.015625 17.1875 
L 47.609375 17.1875 
L 47.609375 0 
L 37.796875 0 
L 37.796875 17.1875 
L 4.890625 17.1875 
L 4.890625 26.703125 
z
" id="DejaVuSans-52"/>
      </defs>
      <g transform="translate(252.049963 269.674844)scale(0.15 -0.15)">
       <use xlink:href="#DejaVuSans-48"/>
       <use x="63.623047" xlink:href="#DejaVuSans-49"/>
       <use x="127.246094" xlink:href="#DejaVuSans-45"/>
       <use x="163.330078" xlink:href="#DejaVuSans-48"/>
       <use x="226.953125" xlink:href="#DejaVuSans-52"/>
       <use x="290.576172" xlink:href="#DejaVuSans-45"/>
       <use x="326.660156" xlink:href="#DejaVuSans-50"/>
       <use x="390.283203" xlink:href="#DejaVuSans-48"/>
       <use x="453.90625" xlink:href="#DejaVuSans-50"/>
       <use x="517.529297" xlink:href="#DejaVuSans-48"/>
      </g>
     </g>
    </g>
    <g id="xtick_3">
     <g id="line2d_5">
      <path clip-path="url(#p633e325c1c)" d="M 432.884434 251.277187 
L 432.884434 26.877187 
" style="fill:none;stroke:#b0b0b0;stroke-linecap:square;stroke-width:0.8;"/>
     </g>
     <g id="line2d_6">
      <g>
       <use style="stroke:#000000;stroke-width:0.8;" x="432.884434" xlink:href="#mfe46ee6081" y="251.277187"/>
      </g>
     </g>
     <g id="text_3">
      <!-- 01-05-2020 -->
      <defs>
       <path d="M 10.796875 72.90625 
L 49.515625 72.90625 
L 49.515625 64.59375 
L 19.828125 64.59375 
L 19.828125 46.734375 
Q 21.96875 47.46875 24.109375 47.828125 
Q 26.265625 48.1875 28.421875 48.1875 
Q 40.625 48.1875 47.75 41.5 
Q 54.890625 34.8125 54.890625 23.390625 
Q 54.890625 11.625 47.5625 5.09375 
Q 40.234375 -1.421875 26.90625 -1.421875 
Q 22.3125 -1.421875 17.546875 -0.640625 
Q 12.796875 0.140625 7.71875 1.703125 
L 7.71875 11.625 
Q 12.109375 9.234375 16.796875 8.0625 
Q 21.484375 6.890625 26.703125 6.890625 
Q 35.15625 6.890625 40.078125 11.328125 
Q 45.015625 15.765625 45.015625 23.390625 
Q 45.015625 31 40.078125 35.4375 
Q 35.15625 39.890625 26.703125 39.890625 
Q 22.75 39.890625 18.8125 39.015625 
Q 14.890625 38.140625 10.796875 36.28125 
z
" id="DejaVuSans-53"/>
      </defs>
      <g transform="translate(389.297715 269.674844)scale(0.15 -0.15)">
       <use xlink:href="#DejaVuSans-48"/>
       <use x="63.623047" xlink:href="#DejaVuSans-49"/>
       <use x="127.246094" xlink:href="#DejaVuSans-45"/>
       <use x="163.330078" xlink:href="#DejaVuSans-48"/>
       <use x="226.953125" xlink:href="#DejaVuSans-53"/>
       <use x="290.576172" xlink:href="#DejaVuSans-45"/>
       <use x="326.660156" xlink:href="#DejaVuSans-50"/>
       <use x="390.283203" xlink:href="#DejaVuSans-48"/>
       <use x="453.90625" xlink:href="#DejaVuSans-50"/>
       <use x="517.529297" xlink:href="#DejaVuSans-48"/>
      </g>
     </g>
    </g>
   </g>
   <g id="matplotlib.axis_2">
    <g id="ytick_1">
     <g id="line2d_7">
      <path clip-path="url(#p633e325c1c)" d="M 64.374219 228.327188 
L 522.324219 228.327188 
" style="fill:none;stroke:#b0b0b0;stroke-linecap:square;stroke-width:0.8;"/>
     </g>
     <g id="line2d_8">
      <defs>
       <path d="M 0 0 
L -3.5 0 
" id="m6056d047d9" style="stroke:#000000;stroke-width:0.8;"/>
      </defs>
      <g>
       <use style="stroke:#000000;stroke-width:0.8;" x="64.374219" xlink:href="#m6056d047d9" y="228.327188"/>
      </g>
     </g>
     <g id="text_4">
      <!-- −80 -->
      <defs>
       <path d="M 10.59375 35.5 
L 73.1875 35.5 
L 73.1875 27.203125 
L 10.59375 27.203125 
z
" id="DejaVuSans-8722"/>
       <path d="M 31.78125 34.625 
Q 24.75 34.625 20.71875 30.859375 
Q 16.703125 27.09375 16.703125 20.515625 
Q 16.703125 13.921875 20.71875 10.15625 
Q 24.75 6.390625 31.78125 6.390625 
Q 38.8125 6.390625 42.859375 10.171875 
Q 46.921875 13.96875 46.921875 20.515625 
Q 46.921875 27.09375 42.890625 30.859375 
Q 38.875 34.625 31.78125 34.625 
z
M 21.921875 38.8125 
Q 15.578125 40.375 12.03125 44.71875 
Q 8.5 49.078125 8.5 55.328125 
Q 8.5 64.0625 14.71875 69.140625 
Q 20.953125 74.21875 31.78125 74.21875 
Q 42.671875 74.21875 48.875 69.140625 
Q 55.078125 64.0625 55.078125 55.328125 
Q 55.078125 49.078125 51.53125 44.71875 
Q 48 40.375 41.703125 38.8125 
Q 48.828125 37.15625 52.796875 32.3125 
Q 56.78125 27.484375 56.78125 20.515625 
Q 56.78125 9.90625 50.3125 4.234375 
Q 43.84375 -1.421875 31.78125 -1.421875 
Q 19.734375 -1.421875 13.25 4.234375 
Q 6.78125 9.90625 6.78125 20.515625 
Q 6.78125 27.484375 10.78125 32.3125 
Q 14.796875 37.15625 21.921875 38.8125 
z
M 18.3125 54.390625 
Q 18.3125 48.734375 21.84375 45.5625 
Q 25.390625 42.390625 31.78125 42.390625 
Q 38.140625 42.390625 41.71875 45.5625 
Q 45.3125 48.734375 45.3125 54.390625 
Q 45.3125 60.0625 41.71875 63.234375 
Q 38.140625 66.40625 31.78125 66.40625 
Q 25.390625 66.40625 21.84375 63.234375 
Q 18.3125 60.0625 18.3125 54.390625 
z
" id="DejaVuSans-56"/>
      </defs>
      <g transform="translate(25.717188 234.026016)scale(0.15 -0.15)">
       <use xlink:href="#DejaVuSans-8722"/>
       <use x="83.789062" xlink:href="#DejaVuSans-56"/>
       <use x="147.412109" xlink:href="#DejaVuSans-48"/>
      </g>
     </g>
    </g>
    <g id="ytick_2">
     <g id="line2d_9">
      <path clip-path="url(#p633e325c1c)" d="M 64.374219 185.827188 
L 522.324219 185.827188 
" style="fill:none;stroke:#b0b0b0;stroke-linecap:square;stroke-width:0.8;"/>
     </g>
     <g id="line2d_10">
      <g>
       <use style="stroke:#000000;stroke-width:0.8;" x="64.374219" xlink:href="#m6056d047d9" y="185.827188"/>
      </g>
     </g>
     <g id="text_5">
      <!-- −60 -->
      <defs>
       <path d="M 33.015625 40.375 
Q 26.375 40.375 22.484375 35.828125 
Q 18.609375 31.296875 18.609375 23.390625 
Q 18.609375 15.53125 22.484375 10.953125 
Q 26.375 6.390625 33.015625 6.390625 
Q 39.65625 6.390625 43.53125 10.953125 
Q 47.40625 15.53125 47.40625 23.390625 
Q 47.40625 31.296875 43.53125 35.828125 
Q 39.65625 40.375 33.015625 40.375 
z
M 52.59375 71.296875 
L 52.59375 62.3125 
Q 48.875 64.0625 45.09375 64.984375 
Q 41.3125 65.921875 37.59375 65.921875 
Q 27.828125 65.921875 22.671875 59.328125 
Q 17.53125 52.734375 16.796875 39.40625 
Q 19.671875 43.65625 24.015625 45.921875 
Q 28.375 48.1875 33.59375 48.1875 
Q 44.578125 48.1875 50.953125 41.515625 
Q 57.328125 34.859375 57.328125 23.390625 
Q 57.328125 12.15625 50.6875 5.359375 
Q 44.046875 -1.421875 33.015625 -1.421875 
Q 20.359375 -1.421875 13.671875 8.265625 
Q 6.984375 17.96875 6.984375 36.375 
Q 6.984375 53.65625 15.1875 63.9375 
Q 23.390625 74.21875 37.203125 74.21875 
Q 40.921875 74.21875 44.703125 73.484375 
Q 48.484375 72.75 52.59375 71.296875 
z
" id="DejaVuSans-54"/>
      </defs>
      <g transform="translate(25.717188 191.526016)scale(0.15 -0.15)">
       <use xlink:href="#DejaVuSans-8722"/>
       <use x="83.789062" xlink:href="#DejaVuSans-54"/>
       <use x="147.412109" xlink:href="#DejaVuSans-48"/>
      </g>
     </g>
    </g>
    <g id="ytick_3">
     <g id="line2d_11">
      <path clip-path="url(#p633e325c1c)" d="M 64.374219 143.327188 
L 522.324219 143.327188 
" style="fill:none;stroke:#b0b0b0;stroke-linecap:square;stroke-width:0.8;"/>
     </g>
     <g id="line2d_12">
      <g>
       <use style="stroke:#000000;stroke-width:0.8;" x="64.374219" xlink:href="#m6056d047d9" y="143.327188"/>
      </g>
     </g>
     <g id="text_6">
      <!-- −40 -->
      <g transform="translate(25.717188 149.026016)scale(0.15 -0.15)">
       <use xlink:href="#DejaVuSans-8722"/>
       <use x="83.789062" xlink:href="#DejaVuSans-52"/>
       <use x="147.412109" xlink:href="#DejaVuSans-48"/>
      </g>
     </g>
    </g>
    <g id="ytick_4">
     <g id="line2d_13">
      <path clip-path="url(#p633e325c1c)" d="M 64.374219 100.827188 
L 522.324219 100.827188 
" style="fill:none;stroke:#b0b0b0;stroke-linecap:square;stroke-width:0.8;"/>
     </g>
     <g id="line2d_14">
      <g>
       <use style="stroke:#000000;stroke-width:0.8;" x="64.374219" xlink:href="#m6056d047d9" y="100.827188"/>
      </g>
     </g>
     <g id="text_7">
      <!-- −20 -->
      <g transform="translate(25.717188 106.526016)scale(0.15 -0.15)">
       <use xlink:href="#DejaVuSans-8722"/>
       <use x="83.789062" xlink:href="#DejaVuSans-50"/>
       <use x="147.412109" xlink:href="#DejaVuSans-48"/>
      </g>
     </g>
    </g>
    <g id="ytick_5">
     <g id="line2d_15">
      <path clip-path="url(#p633e325c1c)" d="M 64.374219 58.327188 
L 522.324219 58.327188 
" style="fill:none;stroke:#b0b0b0;stroke-linecap:square;stroke-width:0.8;"/>
     </g>
     <g id="line2d_16">
      <g>
       <use style="stroke:#000000;stroke-width:0.8;" x="64.374219" xlink:href="#m6056d047d9" y="58.327188"/>
      </g>
     </g>
     <g id="text_8">
      <!-- 0 -->
      <g transform="translate(47.830469 64.026016)scale(0.15 -0.15)">
       <use xlink:href="#DejaVuSans-48"/>
      </g>
     </g>
    </g>
    <g id="text_9">
     <!-- % compared to baseline -->
     <defs>
      <path d="M 72.703125 32.078125 
Q 68.453125 32.078125 66.03125 28.46875 
Q 63.625 24.859375 63.625 18.40625 
Q 63.625 12.0625 66.03125 8.421875 
Q 68.453125 4.78125 72.703125 4.78125 
Q 76.859375 4.78125 79.265625 8.421875 
Q 81.6875 12.0625 81.6875 18.40625 
Q 81.6875 24.8125 79.265625 28.4375 
Q 76.859375 32.078125 72.703125 32.078125 
z
M 72.703125 38.28125 
Q 80.421875 38.28125 84.953125 32.90625 
Q 89.5 27.546875 89.5 18.40625 
Q 89.5 9.28125 84.9375 3.921875 
Q 80.375 -1.421875 72.703125 -1.421875 
Q 64.890625 -1.421875 60.34375 3.921875 
Q 55.8125 9.28125 55.8125 18.40625 
Q 55.8125 27.59375 60.375 32.9375 
Q 64.9375 38.28125 72.703125 38.28125 
z
M 22.3125 68.015625 
Q 18.109375 68.015625 15.6875 64.375 
Q 13.28125 60.75 13.28125 54.390625 
Q 13.28125 47.953125 15.671875 44.328125 
Q 18.0625 40.71875 22.3125 40.71875 
Q 26.5625 40.71875 28.96875 44.328125 
Q 31.390625 47.953125 31.390625 54.390625 
Q 31.390625 60.6875 28.953125 64.34375 
Q 26.515625 68.015625 22.3125 68.015625 
z
M 66.40625 74.21875 
L 74.21875 74.21875 
L 28.609375 -1.421875 
L 20.796875 -1.421875 
z
M 22.3125 74.21875 
Q 30.03125 74.21875 34.609375 68.875 
Q 39.203125 63.53125 39.203125 54.390625 
Q 39.203125 45.171875 34.640625 39.84375 
Q 30.078125 34.515625 22.3125 34.515625 
Q 14.546875 34.515625 10.03125 39.859375 
Q 5.515625 45.21875 5.515625 54.390625 
Q 5.515625 63.484375 10.046875 68.84375 
Q 14.59375 74.21875 22.3125 74.21875 
z
" id="DejaVuSans-37"/>
      <path id="DejaVuSans-32"/>
      <path d="M 48.78125 52.59375 
L 48.78125 44.1875 
Q 44.96875 46.296875 41.140625 47.34375 
Q 37.3125 48.390625 33.40625 48.390625 
Q 24.65625 48.390625 19.8125 42.84375 
Q 14.984375 37.3125 14.984375 27.296875 
Q 14.984375 17.28125 19.8125 11.734375 
Q 24.65625 6.203125 33.40625 6.203125 
Q 37.3125 6.203125 41.140625 7.25 
Q 44.96875 8.296875 48.78125 10.40625 
L 48.78125 2.09375 
Q 45.015625 0.34375 40.984375 -0.53125 
Q 36.96875 -1.421875 32.421875 -1.421875 
Q 20.0625 -1.421875 12.78125 6.34375 
Q 5.515625 14.109375 5.515625 27.296875 
Q 5.515625 40.671875 12.859375 48.328125 
Q 20.21875 56 33.015625 56 
Q 37.15625 56 41.109375 55.140625 
Q 45.0625 54.296875 48.78125 52.59375 
z
" id="DejaVuSans-99"/>
      <path d="M 30.609375 48.390625 
Q 23.390625 48.390625 19.1875 42.75 
Q 14.984375 37.109375 14.984375 27.296875 
Q 14.984375 17.484375 19.15625 11.84375 
Q 23.34375 6.203125 30.609375 6.203125 
Q 37.796875 6.203125 41.984375 11.859375 
Q 46.1875 17.53125 46.1875 27.296875 
Q 46.1875 37.015625 41.984375 42.703125 
Q 37.796875 48.390625 30.609375 48.390625 
z
M 30.609375 56 
Q 42.328125 56 49.015625 48.375 
Q 55.71875 40.765625 55.71875 27.296875 
Q 55.71875 13.875 49.015625 6.21875 
Q 42.328125 -1.421875 30.609375 -1.421875 
Q 18.84375 -1.421875 12.171875 6.21875 
Q 5.515625 13.875 5.515625 27.296875 
Q 5.515625 40.765625 12.171875 48.375 
Q 18.84375 56 30.609375 56 
z
" id="DejaVuSans-111"/>
      <path d="M 52 44.1875 
Q 55.375 50.25 60.0625 53.125 
Q 64.75 56 71.09375 56 
Q 79.640625 56 84.28125 50.015625 
Q 88.921875 44.046875 88.921875 33.015625 
L 88.921875 0 
L 79.890625 0 
L 79.890625 32.71875 
Q 79.890625 40.578125 77.09375 44.375 
Q 74.3125 48.1875 68.609375 48.1875 
Q 61.625 48.1875 57.5625 43.546875 
Q 53.515625 38.921875 53.515625 30.90625 
L 53.515625 0 
L 44.484375 0 
L 44.484375 32.71875 
Q 44.484375 40.625 41.703125 44.40625 
Q 38.921875 48.1875 33.109375 48.1875 
Q 26.21875 48.1875 22.15625 43.53125 
Q 18.109375 38.875 18.109375 30.90625 
L 18.109375 0 
L 9.078125 0 
L 9.078125 54.6875 
L 18.109375 54.6875 
L 18.109375 46.1875 
Q 21.1875 51.21875 25.484375 53.609375 
Q 29.78125 56 35.6875 56 
Q 41.65625 56 45.828125 52.96875 
Q 50 49.953125 52 44.1875 
z
" id="DejaVuSans-109"/>
      <path d="M 18.109375 8.203125 
L 18.109375 -20.796875 
L 9.078125 -20.796875 
L 9.078125 54.6875 
L 18.109375 54.6875 
L 18.109375 46.390625 
Q 20.953125 51.265625 25.265625 53.625 
Q 29.59375 56 35.59375 56 
Q 45.5625 56 51.78125 48.09375 
Q 58.015625 40.1875 58.015625 27.296875 
Q 58.015625 14.40625 51.78125 6.484375 
Q 45.5625 -1.421875 35.59375 -1.421875 
Q 29.59375 -1.421875 25.265625 0.953125 
Q 20.953125 3.328125 18.109375 8.203125 
z
M 48.6875 27.296875 
Q 48.6875 37.203125 44.609375 42.84375 
Q 40.53125 48.484375 33.40625 48.484375 
Q 26.265625 48.484375 22.1875 42.84375 
Q 18.109375 37.203125 18.109375 27.296875 
Q 18.109375 17.390625 22.1875 11.75 
Q 26.265625 6.109375 33.40625 6.109375 
Q 40.53125 6.109375 44.609375 11.75 
Q 48.6875 17.390625 48.6875 27.296875 
z
" id="DejaVuSans-112"/>
      <path d="M 34.28125 27.484375 
Q 23.390625 27.484375 19.1875 25 
Q 14.984375 22.515625 14.984375 16.5 
Q 14.984375 11.71875 18.140625 8.90625 
Q 21.296875 6.109375 26.703125 6.109375 
Q 34.1875 6.109375 38.703125 11.40625 
Q 43.21875 16.703125 43.21875 25.484375 
L 43.21875 27.484375 
z
M 52.203125 31.203125 
L 52.203125 0 
L 43.21875 0 
L 43.21875 8.296875 
Q 40.140625 3.328125 35.546875 0.953125 
Q 30.953125 -1.421875 24.3125 -1.421875 
Q 15.921875 -1.421875 10.953125 3.296875 
Q 6 8.015625 6 15.921875 
Q 6 25.140625 12.171875 29.828125 
Q 18.359375 34.515625 30.609375 34.515625 
L 43.21875 34.515625 
L 43.21875 35.40625 
Q 43.21875 41.609375 39.140625 45 
Q 35.0625 48.390625 27.6875 48.390625 
Q 23 48.390625 18.546875 47.265625 
Q 14.109375 46.140625 10.015625 43.890625 
L 10.015625 52.203125 
Q 14.9375 54.109375 19.578125 55.046875 
Q 24.21875 56 28.609375 56 
Q 40.484375 56 46.34375 49.84375 
Q 52.203125 43.703125 52.203125 31.203125 
z
" id="DejaVuSans-97"/>
      <path d="M 41.109375 46.296875 
Q 39.59375 47.171875 37.8125 47.578125 
Q 36.03125 48 33.890625 48 
Q 26.265625 48 22.1875 43.046875 
Q 18.109375 38.09375 18.109375 28.8125 
L 18.109375 0 
L 9.078125 0 
L 9.078125 54.6875 
L 18.109375 54.6875 
L 18.109375 46.1875 
Q 20.953125 51.171875 25.484375 53.578125 
Q 30.03125 56 36.53125 56 
Q 37.453125 56 38.578125 55.875 
Q 39.703125 55.765625 41.0625 55.515625 
z
" id="DejaVuSans-114"/>
      <path d="M 56.203125 29.59375 
L 56.203125 25.203125 
L 14.890625 25.203125 
Q 15.484375 15.921875 20.484375 11.0625 
Q 25.484375 6.203125 34.421875 6.203125 
Q 39.59375 6.203125 44.453125 7.46875 
Q 49.3125 8.734375 54.109375 11.28125 
L 54.109375 2.78125 
Q 49.265625 0.734375 44.1875 -0.34375 
Q 39.109375 -1.421875 33.890625 -1.421875 
Q 20.796875 -1.421875 13.15625 6.1875 
Q 5.515625 13.8125 5.515625 26.8125 
Q 5.515625 40.234375 12.765625 48.109375 
Q 20.015625 56 32.328125 56 
Q 43.359375 56 49.78125 48.890625 
Q 56.203125 41.796875 56.203125 29.59375 
z
M 47.21875 32.234375 
Q 47.125 39.59375 43.09375 43.984375 
Q 39.0625 48.390625 32.421875 48.390625 
Q 24.90625 48.390625 20.390625 44.140625 
Q 15.875 39.890625 15.1875 32.171875 
z
" id="DejaVuSans-101"/>
      <path d="M 45.40625 46.390625 
L 45.40625 75.984375 
L 54.390625 75.984375 
L 54.390625 0 
L 45.40625 0 
L 45.40625 8.203125 
Q 42.578125 3.328125 38.25 0.953125 
Q 33.9375 -1.421875 27.875 -1.421875 
Q 17.96875 -1.421875 11.734375 6.484375 
Q 5.515625 14.40625 5.515625 27.296875 
Q 5.515625 40.1875 11.734375 48.09375 
Q 17.96875 56 27.875 56 
Q 33.9375 56 38.25 53.625 
Q 42.578125 51.265625 45.40625 46.390625 
z
M 14.796875 27.296875 
Q 14.796875 17.390625 18.875 11.75 
Q 22.953125 6.109375 30.078125 6.109375 
Q 37.203125 6.109375 41.296875 11.75 
Q 45.40625 17.390625 45.40625 27.296875 
Q 45.40625 37.203125 41.296875 42.84375 
Q 37.203125 48.484375 30.078125 48.484375 
Q 22.953125 48.484375 18.875 42.84375 
Q 14.796875 37.203125 14.796875 27.296875 
z
" id="DejaVuSans-100"/>
      <path d="M 18.3125 70.21875 
L 18.3125 54.6875 
L 36.8125 54.6875 
L 36.8125 47.703125 
L 18.3125 47.703125 
L 18.3125 18.015625 
Q 18.3125 11.328125 20.140625 9.421875 
Q 21.96875 7.515625 27.59375 7.515625 
L 36.8125 7.515625 
L 36.8125 0 
L 27.59375 0 
Q 17.1875 0 13.234375 3.875 
Q 9.28125 7.765625 9.28125 18.015625 
L 9.28125 47.703125 
L 2.6875 47.703125 
L 2.6875 54.6875 
L 9.28125 54.6875 
L 9.28125 70.21875 
z
" id="DejaVuSans-116"/>
      <path d="M 48.6875 27.296875 
Q 48.6875 37.203125 44.609375 42.84375 
Q 40.53125 48.484375 33.40625 48.484375 
Q 26.265625 48.484375 22.1875 42.84375 
Q 18.109375 37.203125 18.109375 27.296875 
Q 18.109375 17.390625 22.1875 11.75 
Q 26.265625 6.109375 33.40625 6.109375 
Q 40.53125 6.109375 44.609375 11.75 
Q 48.6875 17.390625 48.6875 27.296875 
z
M 18.109375 46.390625 
Q 20.953125 51.265625 25.265625 53.625 
Q 29.59375 56 35.59375 56 
Q 45.5625 56 51.78125 48.09375 
Q 58.015625 40.1875 58.015625 27.296875 
Q 58.015625 14.40625 51.78125 6.484375 
Q 45.5625 -1.421875 35.59375 -1.421875 
Q 29.59375 -1.421875 25.265625 0.953125 
Q 20.953125 3.328125 18.109375 8.203125 
L 18.109375 0 
L 9.078125 0 
L 9.078125 75.984375 
L 18.109375 75.984375 
z
" id="DejaVuSans-98"/>
      <path d="M 44.28125 53.078125 
L 44.28125 44.578125 
Q 40.484375 46.53125 36.375 47.5 
Q 32.28125 48.484375 27.875 48.484375 
Q 21.1875 48.484375 17.84375 46.4375 
Q 14.5 44.390625 14.5 40.28125 
Q 14.5 37.15625 16.890625 35.375 
Q 19.28125 33.59375 26.515625 31.984375 
L 29.59375 31.296875 
Q 39.15625 29.25 43.1875 25.515625 
Q 47.21875 21.78125 47.21875 15.09375 
Q 47.21875 7.46875 41.1875 3.015625 
Q 35.15625 -1.421875 24.609375 -1.421875 
Q 20.21875 -1.421875 15.453125 -0.5625 
Q 10.6875 0.296875 5.421875 2 
L 5.421875 11.28125 
Q 10.40625 8.6875 15.234375 7.390625 
Q 20.0625 6.109375 24.8125 6.109375 
Q 31.15625 6.109375 34.5625 8.28125 
Q 37.984375 10.453125 37.984375 14.40625 
Q 37.984375 18.0625 35.515625 20.015625 
Q 33.0625 21.96875 24.703125 23.78125 
L 21.578125 24.515625 
Q 13.234375 26.265625 9.515625 29.90625 
Q 5.8125 33.546875 5.8125 39.890625 
Q 5.8125 47.609375 11.28125 51.796875 
Q 16.75 56 26.8125 56 
Q 31.78125 56 36.171875 55.265625 
Q 40.578125 54.546875 44.28125 53.078125 
z
" id="DejaVuSans-115"/>
      <path d="M 9.421875 75.984375 
L 18.40625 75.984375 
L 18.40625 0 
L 9.421875 0 
z
" id="DejaVuSans-108"/>
      <path d="M 9.421875 54.6875 
L 18.40625 54.6875 
L 18.40625 0 
L 9.421875 0 
z
M 9.421875 75.984375 
L 18.40625 75.984375 
L 18.40625 64.59375 
L 9.421875 64.59375 
z
" id="DejaVuSans-105"/>
      <path d="M 54.890625 33.015625 
L 54.890625 0 
L 45.90625 0 
L 45.90625 32.71875 
Q 45.90625 40.484375 42.875 44.328125 
Q 39.84375 48.1875 33.796875 48.1875 
Q 26.515625 48.1875 22.3125 43.546875 
Q 18.109375 38.921875 18.109375 30.90625 
L 18.109375 0 
L 9.078125 0 
L 9.078125 54.6875 
L 18.109375 54.6875 
L 18.109375 46.1875 
Q 21.34375 51.125 25.703125 53.5625 
Q 30.078125 56 35.796875 56 
Q 45.21875 56 50.046875 50.171875 
Q 54.890625 44.34375 54.890625 33.015625 
z
" id="DejaVuSans-110"/>
     </defs>
     <g transform="translate(18.597656 230.130703)rotate(-90)scale(0.15 -0.15)">
      <use xlink:href="#DejaVuSans-37"/>
      <use x="95.019531" xlink:href="#DejaVuSans-32"/>
      <use x="126.806641" xlink:href="#DejaVuSans-99"/>
      <use x="181.787109" xlink:href="#DejaVuSans-111"/>
      <use x="242.96875" xlink:href="#DejaVuSans-109"/>
      <use x="340.380859" xlink:href="#DejaVuSans-112"/>
      <use x="403.857422" xlink:href="#DejaVuSans-97"/>
      <use x="465.136719" xlink:href="#DejaVuSans-114"/>
      <use x="506.21875" xlink:href="#DejaVuSans-101"/>
      <use x="567.742188" xlink:href="#DejaVuSans-100"/>
      <use x="631.21875" xlink:href="#DejaVuSans-32"/>
      <use x="663.005859" xlink:href="#DejaVuSans-116"/>
      <use x="702.214844" xlink:href="#DejaVuSans-111"/>
      <use x="763.396484" xlink:href="#DejaVuSans-32"/>
      <use x="795.183594" xlink:href="#DejaVuSans-98"/>
      <use x="858.660156" xlink:href="#DejaVuSans-97"/>
      <use x="919.939453" xlink:href="#DejaVuSans-115"/>
      <use x="972.039062" xlink:href="#DejaVuSans-101"/>
      <use x="1033.5625" xlink:href="#DejaVuSans-108"/>
      <use x="1061.345703" xlink:href="#DejaVuSans-105"/>
      <use x="1089.128906" xlink:href="#DejaVuSans-110"/>
      <use x="1152.507812" xlink:href="#DejaVuSans-101"/>
     </g>
    </g>
   </g>
   <g id="line2d_17">
    <path clip-path="url(#p633e325c1c)" d="M 85.190128 51.952188 
L 89.765053 73.202188 
L 94.339978 56.202188 
L 98.914903 51.952188 
L 103.489828 51.952188 
L 108.064753 62.577188 
L 112.639678 58.327188 
L 117.214603 66.827188 
L 121.789528 73.202188 
L 126.364454 43.452188 
L 130.939379 37.077188 
L 135.514304 60.452188 
L 140.089229 62.577188 
L 144.664154 60.452188 
L 149.239079 66.827188 
L 153.814004 58.327188 
L 158.388929 66.827188 
L 162.963854 54.077188 
L 167.538779 56.202188 
L 172.113704 66.827188 
L 176.688629 60.452188 
L 181.263554 47.702188 
L 185.838479 60.452188 
L 190.413405 60.452188 
L 194.98833 66.827188 
L 199.563255 66.827188 
L 204.13818 73.202188 
L 208.713105 75.327188 
L 213.28803 207.077188 
L 217.862955 198.577188 
L 222.43788 126.327188 
L 227.012805 134.827188 
L 231.58773 187.952188 
L 236.162655 217.702188 
L 240.73758 226.202188 
L 245.312505 236.827188 
L 249.887431 226.202188 
L 254.462356 215.577188 
L 259.037281 215.577188 
L 263.612206 219.827188 
L 268.187131 221.952188 
L 272.762056 224.077188 
L 277.336981 234.702188 
L 281.911906 236.827188 
L 286.486831 219.827188 
L 291.061756 217.702188 
L 295.636681 219.827188 
L 300.211606 221.952188 
L 304.786531 226.202188 
L 309.361457 232.577188 
L 313.936382 219.827188 
L 318.511307 215.577188 
L 323.086232 211.327188 
L 327.661157 213.452188 
L 332.236082 213.452188 
L 336.811007 217.702188 
L 341.385932 226.202188 
L 345.960857 217.702188 
L 350.535782 241.077188 
L 355.110707 213.452188 
L 359.685632 215.577188 
L 364.260557 213.452188 
L 368.835482 217.702188 
L 373.410408 228.327188 
L 377.985333 219.827188 
L 382.560258 198.577188 
L 387.135183 198.577188 
L 391.710108 202.827188 
L 396.285033 200.702188 
L 400.859958 209.202188 
L 405.434883 217.702188 
L 410.009808 207.077188 
L 414.584733 192.202188 
L 419.159658 202.827188 
L 423.734583 202.827188 
L 428.309508 185.827188 
L 432.884434 234.702188 
L 437.459359 209.202188 
L 442.034284 204.952188 
L 446.609209 179.452188 
L 451.184134 177.327188 
L 455.759059 179.452188 
L 460.333984 179.452188 
L 464.908909 185.827188 
L 469.483834 196.452188 
L 474.058759 190.077188 
L 478.633684 145.452188 
L 483.208609 143.327188 
L 487.783534 151.827188 
L 492.35846 158.202188 
L 496.933385 164.577188 
L 501.50831 173.077188 
" style="fill:none;stroke:#e69f00;stroke-linecap:square;stroke-width:3;"/>
   </g>
   <g id="line2d_18">
    <path clip-path="url(#p633e325c1c)" d="M 208.713105 251.277187 
L 208.713105 26.877187 
" style="fill:none;stroke:#000000;stroke-dasharray:11.1,4.8;stroke-dashoffset:0;stroke-width:3;"/>
   </g>
   <g id="patch_3">
    <path d="M 64.374219 251.277188 
L 64.374219 26.877188 
" style="fill:none;stroke:#000000;stroke-linecap:square;stroke-linejoin:miter;stroke-width:0.8;"/>
   </g>
   <g id="patch_4">
    <path d="M 64.374219 251.277187 
L 522.324219 251.277187 
" style="fill:none;stroke:#000000;stroke-linecap:square;stroke-linejoin:miter;stroke-width:0.8;"/>
   </g>
   <g id="text_10">
    <!-- Retail and recreation -->
    <defs>
     <path d="M 44.390625 34.1875 
Q 47.5625 33.109375 50.5625 29.59375 
Q 53.5625 26.078125 56.59375 19.921875 
L 66.609375 0 
L 56 0 
L 46.6875 18.703125 
Q 43.0625 26.03125 39.671875 28.421875 
Q 36.28125 30.8125 30.421875 30.8125 
L 19.671875 30.8125 
L 19.671875 0 
L 9.8125 0 
L 9.8125 72.90625 
L 32.078125 72.90625 
Q 44.578125 72.90625 50.734375 67.671875 
Q 56.890625 62.453125 56.890625 51.90625 
Q 56.890625 45.015625 53.6875 40.46875 
Q 50.484375 35.9375 44.390625 34.1875 
z
M 19.671875 64.796875 
L 19.671875 38.921875 
L 32.078125 38.921875 
Q 39.203125 38.921875 42.84375 42.21875 
Q 46.484375 45.515625 46.484375 51.90625 
Q 46.484375 58.296875 42.84375 61.546875 
Q 39.203125 64.796875 32.078125 64.796875 
z
" id="DejaVuSans-82"/>
    </defs>
    <g transform="translate(198.693125 20.877187)scale(0.18 -0.18)">
     <use xlink:href="#DejaVuSans-82"/>
     <use x="69.419922" xlink:href="#DejaVuSans-101"/>
     <use x="130.943359" xlink:href="#DejaVuSans-116"/>
     <use x="170.152344" xlink:href="#DejaVuSans-97"/>
     <use x="231.431641" xlink:href="#DejaVuSans-105"/>
     <use x="259.214844" xlink:href="#DejaVuSans-108"/>
     <use x="286.998047" xlink:href="#DejaVuSans-32"/>
     <use x="318.785156" xlink:href="#DejaVuSans-97"/>
     <use x="380.064453" xlink:href="#DejaVuSans-110"/>
     <use x="443.443359" xlink:href="#DejaVuSans-100"/>
     <use x="506.919922" xlink:href="#DejaVuSans-32"/>
     <use x="538.707031" xlink:href="#DejaVuSans-114"/>
     <use x="579.789062" xlink:href="#DejaVuSans-101"/>
     <use x="641.3125" xlink:href="#DejaVuSans-99"/>
     <use x="696.292969" xlink:href="#DejaVuSans-114"/>
     <use x="737.375" xlink:href="#DejaVuSans-101"/>
     <use x="798.898438" xlink:href="#DejaVuSans-97"/>
     <use x="860.177734" xlink:href="#DejaVuSans-116"/>
     <use x="899.386719" xlink:href="#DejaVuSans-105"/>
     <use x="927.169922" xlink:href="#DejaVuSans-111"/>
     <use x="988.351562" xlink:href="#DejaVuSans-110"/>
    </g>
   </g>
  </g>
  <g id="axes_2">
   <g id="patch_5">
    <path d="M 596.274219 251.277187 
L 1054.224219 251.277187 
L 1054.224219 26.877187 
L 596.274219 26.877187 
z
" style="fill:#ffffff;"/>
   </g>
   <g id="matplotlib.axis_3">
    <g id="xtick_4">
     <g id="line2d_19">
      <path clip-path="url(#p86b3eef720)" d="M 685.714004 251.277187 
L 685.714004 26.877187 
" style="fill:none;stroke:#b0b0b0;stroke-linecap:square;stroke-width:0.8;"/>
     </g>
     <g id="line2d_20">
      <g>
       <use style="stroke:#000000;stroke-width:0.8;" x="685.714004" xlink:href="#mfe46ee6081" y="251.277187"/>
      </g>
     </g>
     <g id="text_11">
      <!-- 01-03-2020 -->
      <g transform="translate(642.127285 269.674844)scale(0.15 -0.15)">
       <use xlink:href="#DejaVuSans-48"/>
       <use x="63.623047" xlink:href="#DejaVuSans-49"/>
       <use x="127.246094" xlink:href="#DejaVuSans-45"/>
       <use x="163.330078" xlink:href="#DejaVuSans-48"/>
       <use x="226.953125" xlink:href="#DejaVuSans-51"/>
       <use x="290.576172" xlink:href="#DejaVuSans-45"/>
       <use x="326.660156" xlink:href="#DejaVuSans-50"/>
       <use x="390.283203" xlink:href="#DejaVuSans-48"/>
       <use x="453.90625" xlink:href="#DejaVuSans-50"/>
       <use x="517.529297" xlink:href="#DejaVuSans-48"/>
      </g>
     </g>
    </g>
    <g id="xtick_5">
     <g id="line2d_21">
      <path clip-path="url(#p86b3eef720)" d="M 827.536681 251.277187 
L 827.536681 26.877187 
" style="fill:none;stroke:#b0b0b0;stroke-linecap:square;stroke-width:0.8;"/>
     </g>
     <g id="line2d_22">
      <g>
       <use style="stroke:#000000;stroke-width:0.8;" x="827.536681" xlink:href="#mfe46ee6081" y="251.277187"/>
      </g>
     </g>
     <g id="text_12">
      <!-- 01-04-2020 -->
      <g transform="translate(783.949963 269.674844)scale(0.15 -0.15)">
       <use xlink:href="#DejaVuSans-48"/>
       <use x="63.623047" xlink:href="#DejaVuSans-49"/>
       <use x="127.246094" xlink:href="#DejaVuSans-45"/>
       <use x="163.330078" xlink:href="#DejaVuSans-48"/>
       <use x="226.953125" xlink:href="#DejaVuSans-52"/>
       <use x="290.576172" xlink:href="#DejaVuSans-45"/>
       <use x="326.660156" xlink:href="#DejaVuSans-50"/>
       <use x="390.283203" xlink:href="#DejaVuSans-48"/>
       <use x="453.90625" xlink:href="#DejaVuSans-50"/>
       <use x="517.529297" xlink:href="#DejaVuSans-48"/>
      </g>
     </g>
    </g>
    <g id="xtick_6">
     <g id="line2d_23">
      <path clip-path="url(#p86b3eef720)" d="M 964.784434 251.277187 
L 964.784434 26.877187 
" style="fill:none;stroke:#b0b0b0;stroke-linecap:square;stroke-width:0.8;"/>
     </g>
     <g id="line2d_24">
      <g>
       <use style="stroke:#000000;stroke-width:0.8;" x="964.784434" xlink:href="#mfe46ee6081" y="251.277187"/>
      </g>
     </g>
     <g id="text_13">
      <!-- 01-05-2020 -->
      <g transform="translate(921.197715 269.674844)scale(0.15 -0.15)">
       <use xlink:href="#DejaVuSans-48"/>
       <use x="63.623047" xlink:href="#DejaVuSans-49"/>
       <use x="127.246094" xlink:href="#DejaVuSans-45"/>
       <use x="163.330078" xlink:href="#DejaVuSans-48"/>
       <use x="226.953125" xlink:href="#DejaVuSans-53"/>
       <use x="290.576172" xlink:href="#DejaVuSans-45"/>
       <use x="326.660156" xlink:href="#DejaVuSans-50"/>
       <use x="390.283203" xlink:href="#DejaVuSans-48"/>
       <use x="453.90625" xlink:href="#DejaVuSans-50"/>
       <use x="517.529297" xlink:href="#DejaVuSans-48"/>
      </g>
     </g>
    </g>
   </g>
   <g id="matplotlib.axis_4">
    <g id="ytick_6">
     <g id="line2d_25">
      <path clip-path="url(#p86b3eef720)" d="M 596.274219 248.11167 
L 1054.224219 248.11167 
" style="fill:none;stroke:#b0b0b0;stroke-linecap:square;stroke-width:0.8;"/>
     </g>
     <g id="line2d_26">
      <g>
       <use style="stroke:#000000;stroke-width:0.8;" x="596.274219" xlink:href="#m6056d047d9" y="248.11167"/>
      </g>
     </g>
     <g id="text_14">
      <!-- −80 -->
      <g transform="translate(557.617188 253.810498)scale(0.15 -0.15)">
       <use xlink:href="#DejaVuSans-8722"/>
       <use x="83.789062" xlink:href="#DejaVuSans-56"/>
       <use x="147.412109" xlink:href="#DejaVuSans-48"/>
      </g>
     </g>
    </g>
    <g id="ytick_7">
     <g id="line2d_27">
      <path clip-path="url(#p86b3eef720)" d="M 596.274219 212.939256 
L 1054.224219 212.939256 
" style="fill:none;stroke:#b0b0b0;stroke-linecap:square;stroke-width:0.8;"/>
     </g>
     <g id="line2d_28">
      <g>
       <use style="stroke:#000000;stroke-width:0.8;" x="596.274219" xlink:href="#m6056d047d9" y="212.939256"/>
      </g>
     </g>
     <g id="text_15">
      <!-- −60 -->
      <g transform="translate(557.617188 218.638085)scale(0.15 -0.15)">
       <use xlink:href="#DejaVuSans-8722"/>
       <use x="83.789062" xlink:href="#DejaVuSans-54"/>
       <use x="147.412109" xlink:href="#DejaVuSans-48"/>
      </g>
     </g>
    </g>
    <g id="ytick_8">
     <g id="line2d_29">
      <path clip-path="url(#p86b3eef720)" d="M 596.274219 177.766843 
L 1054.224219 177.766843 
" style="fill:none;stroke:#b0b0b0;stroke-linecap:square;stroke-width:0.8;"/>
     </g>
     <g id="line2d_30">
      <g>
       <use style="stroke:#000000;stroke-width:0.8;" x="596.274219" xlink:href="#m6056d047d9" y="177.766843"/>
      </g>
     </g>
     <g id="text_16">
      <!-- −40 -->
      <g transform="translate(557.617188 183.465671)scale(0.15 -0.15)">
       <use xlink:href="#DejaVuSans-8722"/>
       <use x="83.789062" xlink:href="#DejaVuSans-52"/>
       <use x="147.412109" xlink:href="#DejaVuSans-48"/>
      </g>
     </g>
    </g>
    <g id="ytick_9">
     <g id="line2d_31">
      <path clip-path="url(#p86b3eef720)" d="M 596.274219 142.594429 
L 1054.224219 142.594429 
" style="fill:none;stroke:#b0b0b0;stroke-linecap:square;stroke-width:0.8;"/>
     </g>
     <g id="line2d_32">
      <g>
       <use style="stroke:#000000;stroke-width:0.8;" x="596.274219" xlink:href="#m6056d047d9" y="142.594429"/>
      </g>
     </g>
     <g id="text_17">
      <!-- −20 -->
      <g transform="translate(557.617188 148.293257)scale(0.15 -0.15)">
       <use xlink:href="#DejaVuSans-8722"/>
       <use x="83.789062" xlink:href="#DejaVuSans-50"/>
       <use x="147.412109" xlink:href="#DejaVuSans-48"/>
      </g>
     </g>
    </g>
    <g id="ytick_10">
     <g id="line2d_33">
      <path clip-path="url(#p86b3eef720)" d="M 596.274219 107.422015 
L 1054.224219 107.422015 
" style="fill:none;stroke:#b0b0b0;stroke-linecap:square;stroke-width:0.8;"/>
     </g>
     <g id="line2d_34">
      <g>
       <use style="stroke:#000000;stroke-width:0.8;" x="596.274219" xlink:href="#m6056d047d9" y="107.422015"/>
      </g>
     </g>
     <g id="text_18">
      <!-- 0 -->
      <g transform="translate(579.730469 113.120843)scale(0.15 -0.15)">
       <use xlink:href="#DejaVuSans-48"/>
      </g>
     </g>
    </g>
    <g id="ytick_11">
     <g id="line2d_35">
      <path clip-path="url(#p86b3eef720)" d="M 596.274219 72.249601 
L 1054.224219 72.249601 
" style="fill:none;stroke:#b0b0b0;stroke-linecap:square;stroke-width:0.8;"/>
     </g>
     <g id="line2d_36">
      <g>
       <use style="stroke:#000000;stroke-width:0.8;" x="596.274219" xlink:href="#m6056d047d9" y="72.249601"/>
      </g>
     </g>
     <g id="text_19">
      <!-- 20 -->
      <g transform="translate(570.186719 77.948429)scale(0.15 -0.15)">
       <use xlink:href="#DejaVuSans-50"/>
       <use x="63.623047" xlink:href="#DejaVuSans-48"/>
      </g>
     </g>
    </g>
    <g id="ytick_12">
     <g id="line2d_37">
      <path clip-path="url(#p86b3eef720)" d="M 596.274219 37.077188 
L 1054.224219 37.077188 
" style="fill:none;stroke:#b0b0b0;stroke-linecap:square;stroke-width:0.8;"/>
     </g>
     <g id="line2d_38">
      <g>
       <use style="stroke:#000000;stroke-width:0.8;" x="596.274219" xlink:href="#m6056d047d9" y="37.077188"/>
      </g>
     </g>
     <g id="text_20">
      <!-- 40 -->
      <g transform="translate(570.186719 42.776016)scale(0.15 -0.15)">
       <use xlink:href="#DejaVuSans-52"/>
       <use x="63.623047" xlink:href="#DejaVuSans-48"/>
      </g>
     </g>
    </g>
    <g id="text_21">
     <!-- % compared to baseline -->
     <g transform="translate(550.497656 230.130703)rotate(-90)scale(0.15 -0.15)">
      <use xlink:href="#DejaVuSans-37"/>
      <use x="95.019531" xlink:href="#DejaVuSans-32"/>
      <use x="126.806641" xlink:href="#DejaVuSans-99"/>
      <use x="181.787109" xlink:href="#DejaVuSans-111"/>
      <use x="242.96875" xlink:href="#DejaVuSans-109"/>
      <use x="340.380859" xlink:href="#DejaVuSans-112"/>
      <use x="403.857422" xlink:href="#DejaVuSans-97"/>
      <use x="465.136719" xlink:href="#DejaVuSans-114"/>
      <use x="506.21875" xlink:href="#DejaVuSans-101"/>
      <use x="567.742188" xlink:href="#DejaVuSans-100"/>
      <use x="631.21875" xlink:href="#DejaVuSans-32"/>
      <use x="663.005859" xlink:href="#DejaVuSans-116"/>
      <use x="702.214844" xlink:href="#DejaVuSans-111"/>
      <use x="763.396484" xlink:href="#DejaVuSans-32"/>
      <use x="795.183594" xlink:href="#DejaVuSans-98"/>
      <use x="858.660156" xlink:href="#DejaVuSans-97"/>
      <use x="919.939453" xlink:href="#DejaVuSans-115"/>
      <use x="972.039062" xlink:href="#DejaVuSans-101"/>
      <use x="1033.5625" xlink:href="#DejaVuSans-108"/>
      <use x="1061.345703" xlink:href="#DejaVuSans-105"/>
      <use x="1089.128906" xlink:href="#DejaVuSans-110"/>
      <use x="1152.507812" xlink:href="#DejaVuSans-101"/>
     </g>
    </g>
   </g>
   <g id="line2d_39">
    <path clip-path="url(#p86b3eef720)" d="M 617.090128 103.904774 
L 621.665053 112.697877 
L 626.239978 103.904774 
L 630.814903 102.146153 
L 635.389828 105.663394 
L 639.964753 109.180636 
L 644.539678 102.146153 
L 649.114603 107.422015 
L 653.689528 119.73236 
L 658.264454 107.422015 
L 662.839379 103.904774 
L 667.414304 116.215119 
L 671.989229 110.939256 
L 676.564154 102.146153 
L 681.139079 103.904774 
L 685.714004 96.870291 
L 690.288929 95.11167 
L 694.863854 96.870291 
L 699.438779 100.387532 
L 704.013704 105.663394 
L 708.588629 98.628912 
L 713.163554 102.146153 
L 717.738479 105.663394 
L 722.313405 100.387532 
L 726.88833 100.387532 
L 731.463255 100.387532 
L 736.03818 66.973739 
L 740.613105 37.077188 
L 745.18803 121.490981 
L 749.762955 139.077188 
L 754.33788 79.284084 
L 758.912805 54.663394 
L 763.48773 128.525463 
L 768.062655 147.870291 
L 772.63758 146.11167 
L 777.212505 176.008222 
L 781.787431 186.559946 
L 786.362356 151.387532 
L 790.937281 144.35305 
L 795.512206 158.422015 
L 800.087131 151.387532 
L 804.662056 144.35305 
L 809.236981 170.73236 
L 813.811906 200.628912 
L 818.386831 160.180636 
L 822.961756 151.387532 
L 827.536681 161.939256 
L 832.111606 154.904774 
L 836.686531 144.35305 
L 841.261457 163.697877 
L 845.836382 170.73236 
L 850.411307 154.904774 
L 854.986232 140.835808 
L 859.561157 151.387532 
L 864.136082 139.077188 
L 868.711007 132.042705 
L 873.285932 151.387532 
L 877.860857 177.766843 
L 882.435782 241.077188 
L 887.010707 126.766843 
L 891.585632 149.628912 
L 896.160557 142.594429 
L 900.735482 140.835808 
L 905.310408 168.973739 
L 909.885333 183.042705 
L 914.460258 156.663394 
L 919.035183 146.11167 
L 923.610108 151.387532 
L 928.185033 140.835808 
L 932.759958 140.835808 
L 937.334883 156.663394 
L 941.909808 165.456498 
L 946.484733 153.146153 
L 951.059658 147.870291 
L 955.634583 144.35305 
L 960.209508 109.180636 
L 964.784434 228.766843 
L 969.359359 140.835808 
L 973.934284 170.73236 
L 978.509209 140.835808 
L 983.084134 135.559946 
L 987.659059 140.835808 
L 992.233984 130.284084 
L 996.808909 128.525463 
L 1001.383834 139.077188 
L 1005.958759 151.387532 
L 1010.533684 139.077188 
L 1015.108609 126.766843 
L 1019.683534 133.801325 
L 1024.25846 121.490981 
L 1028.833385 119.73236 
L 1033.40831 132.042705 
" style="fill:none;stroke:#e69f00;stroke-linecap:square;stroke-width:3;"/>
   </g>
   <g id="line2d_40">
    <path clip-path="url(#p86b3eef720)" d="M 740.613105 251.277187 
L 740.613105 26.877187 
" style="fill:none;stroke:#000000;stroke-dasharray:11.1,4.8;stroke-dashoffset:0;stroke-width:3;"/>
   </g>
   <g id="patch_6">
    <path d="M 596.274219 251.277187 
L 596.274219 26.877188 
" style="fill:none;stroke:#000000;stroke-linecap:square;stroke-linejoin:miter;stroke-width:0.8;"/>
   </g>
   <g id="patch_7">
    <path d="M 596.274219 251.277187 
L 1054.224219 251.277187 
" style="fill:none;stroke:#000000;stroke-linecap:square;stroke-linejoin:miter;stroke-width:0.8;"/>
   </g>
   <g id="text_22">
    <!-- Groceries and pharmacy -->
    <defs>
     <path d="M 59.515625 10.40625 
L 59.515625 29.984375 
L 43.40625 29.984375 
L 43.40625 38.09375 
L 69.28125 38.09375 
L 69.28125 6.78125 
Q 63.578125 2.734375 56.6875 0.65625 
Q 49.8125 -1.421875 42 -1.421875 
Q 24.90625 -1.421875 15.25 8.5625 
Q 5.609375 18.5625 5.609375 36.375 
Q 5.609375 54.25 15.25 64.234375 
Q 24.90625 74.21875 42 74.21875 
Q 49.125 74.21875 55.546875 72.453125 
Q 61.96875 70.703125 67.390625 67.28125 
L 67.390625 56.78125 
Q 61.921875 61.421875 55.765625 63.765625 
Q 49.609375 66.109375 42.828125 66.109375 
Q 29.4375 66.109375 22.71875 58.640625 
Q 16.015625 51.171875 16.015625 36.375 
Q 16.015625 21.625 22.71875 14.15625 
Q 29.4375 6.6875 42.828125 6.6875 
Q 48.046875 6.6875 52.140625 7.59375 
Q 56.25 8.5 59.515625 10.40625 
z
" id="DejaVuSans-71"/>
     <path d="M 54.890625 33.015625 
L 54.890625 0 
L 45.90625 0 
L 45.90625 32.71875 
Q 45.90625 40.484375 42.875 44.328125 
Q 39.84375 48.1875 33.796875 48.1875 
Q 26.515625 48.1875 22.3125 43.546875 
Q 18.109375 38.921875 18.109375 30.90625 
L 18.109375 0 
L 9.078125 0 
L 9.078125 75.984375 
L 18.109375 75.984375 
L 18.109375 46.1875 
Q 21.34375 51.125 25.703125 53.5625 
Q 30.078125 56 35.796875 56 
Q 45.21875 56 50.046875 50.171875 
Q 54.890625 44.34375 54.890625 33.015625 
z
" id="DejaVuSans-104"/>
     <path d="M 32.171875 -5.078125 
Q 28.375 -14.84375 24.75 -17.8125 
Q 21.140625 -20.796875 15.09375 -20.796875 
L 7.90625 -20.796875 
L 7.90625 -13.28125 
L 13.1875 -13.28125 
Q 16.890625 -13.28125 18.9375 -11.515625 
Q 21 -9.765625 23.484375 -3.21875 
L 25.09375 0.875 
L 2.984375 54.6875 
L 12.5 54.6875 
L 29.59375 11.921875 
L 46.6875 54.6875 
L 56.203125 54.6875 
z
" id="DejaVuSans-121"/>
    </defs>
    <g transform="translate(714.317188 20.877187)scale(0.18 -0.18)">
     <use xlink:href="#DejaVuSans-71"/>
     <use x="77.490234" xlink:href="#DejaVuSans-114"/>
     <use x="118.572266" xlink:href="#DejaVuSans-111"/>
     <use x="179.753906" xlink:href="#DejaVuSans-99"/>
     <use x="234.734375" xlink:href="#DejaVuSans-101"/>
     <use x="296.257812" xlink:href="#DejaVuSans-114"/>
     <use x="337.371094" xlink:href="#DejaVuSans-105"/>
     <use x="365.154297" xlink:href="#DejaVuSans-101"/>
     <use x="426.677734" xlink:href="#DejaVuSans-115"/>
     <use x="478.777344" xlink:href="#DejaVuSans-32"/>
     <use x="510.564453" xlink:href="#DejaVuSans-97"/>
     <use x="571.84375" xlink:href="#DejaVuSans-110"/>
     <use x="635.222656" xlink:href="#DejaVuSans-100"/>
     <use x="698.699219" xlink:href="#DejaVuSans-32"/>
     <use x="730.486328" xlink:href="#DejaVuSans-112"/>
     <use x="793.962891" xlink:href="#DejaVuSans-104"/>
     <use x="857.341797" xlink:href="#DejaVuSans-97"/>
     <use x="918.621094" xlink:href="#DejaVuSans-114"/>
     <use x="959.71875" xlink:href="#DejaVuSans-109"/>
     <use x="1057.130859" xlink:href="#DejaVuSans-97"/>
     <use x="1118.410156" xlink:href="#DejaVuSans-99"/>
     <use x="1173.390625" xlink:href="#DejaVuSans-121"/>
    </g>
   </g>
  </g>
  <g id="axes_3">
   <g id="patch_8">
    <path d="M 64.374219 533.877187 
L 522.324219 533.877187 
L 522.324219 309.477187 
L 64.374219 309.477187 
z
" style="fill:#ffffff;"/>
   </g>
   <g id="matplotlib.axis_5">
    <g id="xtick_7">
     <g id="line2d_41">
      <path clip-path="url(#pcce7805b2b)" d="M 153.814004 533.877187 
L 153.814004 309.477187 
" style="fill:none;stroke:#b0b0b0;stroke-linecap:square;stroke-width:0.8;"/>
     </g>
     <g id="line2d_42">
      <g>
       <use style="stroke:#000000;stroke-width:0.8;" x="153.814004" xlink:href="#mfe46ee6081" y="533.877187"/>
      </g>
     </g>
     <g id="text_23">
      <!-- 01-03-2020 -->
      <g transform="translate(110.227285 552.274844)scale(0.15 -0.15)">
       <use xlink:href="#DejaVuSans-48"/>
       <use x="63.623047" xlink:href="#DejaVuSans-49"/>
       <use x="127.246094" xlink:href="#DejaVuSans-45"/>
       <use x="163.330078" xlink:href="#DejaVuSans-48"/>
       <use x="226.953125" xlink:href="#DejaVuSans-51"/>
       <use x="290.576172" xlink:href="#DejaVuSans-45"/>
       <use x="326.660156" xlink:href="#DejaVuSans-50"/>
       <use x="390.283203" xlink:href="#DejaVuSans-48"/>
       <use x="453.90625" xlink:href="#DejaVuSans-50"/>
       <use x="517.529297" xlink:href="#DejaVuSans-48"/>
      </g>
     </g>
    </g>
    <g id="xtick_8">
     <g id="line2d_43">
      <path clip-path="url(#pcce7805b2b)" d="M 295.636681 533.877187 
L 295.636681 309.477187 
" style="fill:none;stroke:#b0b0b0;stroke-linecap:square;stroke-width:0.8;"/>
     </g>
     <g id="line2d_44">
      <g>
       <use style="stroke:#000000;stroke-width:0.8;" x="295.636681" xlink:href="#mfe46ee6081" y="533.877187"/>
      </g>
     </g>
     <g id="text_24">
      <!-- 01-04-2020 -->
      <g transform="translate(252.049963 552.274844)scale(0.15 -0.15)">
       <use xlink:href="#DejaVuSans-48"/>
       <use x="63.623047" xlink:href="#DejaVuSans-49"/>
       <use x="127.246094" xlink:href="#DejaVuSans-45"/>
       <use x="163.330078" xlink:href="#DejaVuSans-48"/>
       <use x="226.953125" xlink:href="#DejaVuSans-52"/>
       <use x="290.576172" xlink:href="#DejaVuSans-45"/>
       <use x="326.660156" xlink:href="#DejaVuSans-50"/>
       <use x="390.283203" xlink:href="#DejaVuSans-48"/>
       <use x="453.90625" xlink:href="#DejaVuSans-50"/>
       <use x="517.529297" xlink:href="#DejaVuSans-48"/>
      </g>
     </g>
    </g>
    <g id="xtick_9">
     <g id="line2d_45">
      <path clip-path="url(#pcce7805b2b)" d="M 432.884434 533.877187 
L 432.884434 309.477187 
" style="fill:none;stroke:#b0b0b0;stroke-linecap:square;stroke-width:0.8;"/>
     </g>
     <g id="line2d_46">
      <g>
       <use style="stroke:#000000;stroke-width:0.8;" x="432.884434" xlink:href="#mfe46ee6081" y="533.877187"/>
      </g>
     </g>
     <g id="text_25">
      <!-- 01-05-2020 -->
      <g transform="translate(389.297715 552.274844)scale(0.15 -0.15)">
       <use xlink:href="#DejaVuSans-48"/>
       <use x="63.623047" xlink:href="#DejaVuSans-49"/>
       <use x="127.246094" xlink:href="#DejaVuSans-45"/>
       <use x="163.330078" xlink:href="#DejaVuSans-48"/>
       <use x="226.953125" xlink:href="#DejaVuSans-53"/>
       <use x="290.576172" xlink:href="#DejaVuSans-45"/>
       <use x="326.660156" xlink:href="#DejaVuSans-50"/>
       <use x="390.283203" xlink:href="#DejaVuSans-48"/>
       <use x="453.90625" xlink:href="#DejaVuSans-50"/>
       <use x="517.529297" xlink:href="#DejaVuSans-48"/>
      </g>
     </g>
    </g>
   </g>
   <g id="matplotlib.axis_6">
    <g id="ytick_13">
     <g id="line2d_47">
      <path clip-path="url(#pcce7805b2b)" d="M 64.374219 511.313551 
L 522.324219 511.313551 
" style="fill:none;stroke:#b0b0b0;stroke-linecap:square;stroke-width:0.8;"/>
     </g>
     <g id="line2d_48">
      <g>
       <use style="stroke:#000000;stroke-width:0.8;" x="64.374219" xlink:href="#m6056d047d9" y="511.313551"/>
      </g>
     </g>
     <g id="text_26">
      <!-- −60 -->
      <g transform="translate(25.717188 517.012379)scale(0.15 -0.15)">
       <use xlink:href="#DejaVuSans-8722"/>
       <use x="83.789062" xlink:href="#DejaVuSans-54"/>
       <use x="147.412109" xlink:href="#DejaVuSans-48"/>
      </g>
     </g>
    </g>
    <g id="ytick_14">
     <g id="line2d_49">
      <path clip-path="url(#pcce7805b2b)" d="M 64.374219 470.10143 
L 522.324219 470.10143 
" style="fill:none;stroke:#b0b0b0;stroke-linecap:square;stroke-width:0.8;"/>
     </g>
     <g id="line2d_50">
      <g>
       <use style="stroke:#000000;stroke-width:0.8;" x="64.374219" xlink:href="#m6056d047d9" y="470.10143"/>
      </g>
     </g>
     <g id="text_27">
      <!-- −40 -->
      <g transform="translate(25.717188 475.800258)scale(0.15 -0.15)">
       <use xlink:href="#DejaVuSans-8722"/>
       <use x="83.789062" xlink:href="#DejaVuSans-52"/>
       <use x="147.412109" xlink:href="#DejaVuSans-48"/>
      </g>
     </g>
    </g>
    <g id="ytick_15">
     <g id="line2d_51">
      <path clip-path="url(#pcce7805b2b)" d="M 64.374219 428.889309 
L 522.324219 428.889309 
" style="fill:none;stroke:#b0b0b0;stroke-linecap:square;stroke-width:0.8;"/>
     </g>
     <g id="line2d_52">
      <g>
       <use style="stroke:#000000;stroke-width:0.8;" x="64.374219" xlink:href="#m6056d047d9" y="428.889309"/>
      </g>
     </g>
     <g id="text_28">
      <!-- −20 -->
      <g transform="translate(25.717188 434.588137)scale(0.15 -0.15)">
       <use xlink:href="#DejaVuSans-8722"/>
       <use x="83.789062" xlink:href="#DejaVuSans-50"/>
       <use x="147.412109" xlink:href="#DejaVuSans-48"/>
      </g>
     </g>
    </g>
    <g id="ytick_16">
     <g id="line2d_53">
      <path clip-path="url(#pcce7805b2b)" d="M 64.374219 387.677187 
L 522.324219 387.677187 
" style="fill:none;stroke:#b0b0b0;stroke-linecap:square;stroke-width:0.8;"/>
     </g>
     <g id="line2d_54">
      <g>
       <use style="stroke:#000000;stroke-width:0.8;" x="64.374219" xlink:href="#m6056d047d9" y="387.677187"/>
      </g>
     </g>
     <g id="text_29">
      <!-- 0 -->
      <g transform="translate(47.830469 393.376016)scale(0.15 -0.15)">
       <use xlink:href="#DejaVuSans-48"/>
      </g>
     </g>
    </g>
    <g id="ytick_17">
     <g id="line2d_55">
      <path clip-path="url(#pcce7805b2b)" d="M 64.374219 346.465066 
L 522.324219 346.465066 
" style="fill:none;stroke:#b0b0b0;stroke-linecap:square;stroke-width:0.8;"/>
     </g>
     <g id="line2d_56">
      <g>
       <use style="stroke:#000000;stroke-width:0.8;" x="64.374219" xlink:href="#m6056d047d9" y="346.465066"/>
      </g>
     </g>
     <g id="text_30">
      <!-- 20 -->
      <g transform="translate(38.286719 352.163894)scale(0.15 -0.15)">
       <use xlink:href="#DejaVuSans-50"/>
       <use x="63.623047" xlink:href="#DejaVuSans-48"/>
      </g>
     </g>
    </g>
    <g id="text_31">
     <!-- % compared to baseline -->
     <g transform="translate(18.597656 512.730703)rotate(-90)scale(0.15 -0.15)">
      <use xlink:href="#DejaVuSans-37"/>
      <use x="95.019531" xlink:href="#DejaVuSans-32"/>
      <use x="126.806641" xlink:href="#DejaVuSans-99"/>
      <use x="181.787109" xlink:href="#DejaVuSans-111"/>
      <use x="242.96875" xlink:href="#DejaVuSans-109"/>
      <use x="340.380859" xlink:href="#DejaVuSans-112"/>
      <use x="403.857422" xlink:href="#DejaVuSans-97"/>
      <use x="465.136719" xlink:href="#DejaVuSans-114"/>
      <use x="506.21875" xlink:href="#DejaVuSans-101"/>
      <use x="567.742188" xlink:href="#DejaVuSans-100"/>
      <use x="631.21875" xlink:href="#DejaVuSans-32"/>
      <use x="663.005859" xlink:href="#DejaVuSans-116"/>
      <use x="702.214844" xlink:href="#DejaVuSans-111"/>
      <use x="763.396484" xlink:href="#DejaVuSans-32"/>
      <use x="795.183594" xlink:href="#DejaVuSans-98"/>
      <use x="858.660156" xlink:href="#DejaVuSans-97"/>
      <use x="919.939453" xlink:href="#DejaVuSans-115"/>
      <use x="972.039062" xlink:href="#DejaVuSans-101"/>
      <use x="1033.5625" xlink:href="#DejaVuSans-108"/>
      <use x="1061.345703" xlink:href="#DejaVuSans-105"/>
      <use x="1089.128906" xlink:href="#DejaVuSans-110"/>
      <use x="1152.507812" xlink:href="#DejaVuSans-101"/>
     </g>
    </g>
   </g>
   <g id="line2d_57">
    <path clip-path="url(#pcce7805b2b)" d="M 85.190128 327.919612 
L 89.765053 449.495369 
L 94.339978 371.192339 
L 98.914903 350.586278 
L 103.489828 360.889309 
L 108.064753 379.434763 
L 112.639678 356.768097 
L 117.214603 387.677187 
L 121.789528 443.313551 
L 126.364454 373.252945 
L 130.939379 327.919612 
L 135.514304 395.919612 
L 140.089229 418.586278 
L 144.664154 381.495369 
L 149.239079 402.10143 
L 153.814004 391.7984 
L 158.388929 412.40446 
L 162.963854 365.010521 
L 167.538779 373.252945 
L 172.113704 420.646884 
L 176.688629 383.555975 
L 181.263554 319.677187 
L 185.838479 430.949915 
L 190.413405 375.313551 
L 194.98833 397.980218 
L 199.563255 393.859006 
L 204.13818 379.434763 
L 208.713105 397.980218 
L 213.28803 387.677187 
L 217.862955 346.465066 
L 222.43788 373.252945 
L 227.012805 323.7984 
L 231.58773 373.252945 
L 236.162655 426.828703 
L 240.73758 490.707491 
L 245.312505 457.737794 
L 249.887431 428.889309 
L 254.462356 428.889309 
L 259.037281 404.162036 
L 263.612206 426.828703 
L 268.187131 439.192339 
L 272.762056 443.313551 
L 277.336981 465.980218 
L 281.911906 523.677187 
L 286.486831 459.7984 
L 291.061756 424.768097 
L 295.636681 424.768097 
L 300.211606 465.980218 
L 304.786531 465.980218 
L 309.361457 449.495369 
L 313.936382 414.465066 
L 318.511307 426.828703 
L 323.086232 379.434763 
L 327.661157 393.859006 
L 332.236082 402.10143 
L 336.811007 412.40446 
L 341.385932 428.889309 
L 345.960857 437.131733 
L 350.535782 451.555975 
L 355.110707 441.252945 
L 359.685632 412.40446 
L 364.260557 395.919612 
L 368.835482 416.525672 
L 373.410408 498.949915 
L 377.985333 447.434763 
L 382.560258 406.222642 
L 387.135183 387.677187 
L 391.710108 389.737794 
L 396.285033 383.555975 
L 400.859958 422.707491 
L 405.434883 439.192339 
L 410.009808 393.859006 
L 414.584733 379.434763 
L 419.159658 465.980218 
L 423.734583 451.555975 
L 428.309508 445.374157 
L 432.884434 463.919612 
L 437.459359 461.859006 
L 442.034284 414.465066 
L 446.609209 395.919612 
L 451.184134 352.646884 
L 455.759059 344.40446 
L 460.333984 348.525672 
L 464.908909 365.010521 
L 469.483834 352.646884 
L 474.058759 468.040824 
L 478.633684 424.768097 
L 483.208609 375.313551 
L 487.783534 402.10143 
L 492.35846 389.737794 
L 496.933385 385.616581 
L 501.50831 400.040824 
" style="fill:none;stroke:#e69f00;stroke-linecap:square;stroke-width:3;"/>
   </g>
   <g id="line2d_58">
    <path clip-path="url(#pcce7805b2b)" d="M 208.713105 533.877187 
L 208.713105 309.477187 
" style="fill:none;stroke:#000000;stroke-dasharray:11.1,4.8;stroke-dashoffset:0;stroke-width:3;"/>
   </g>
   <g id="patch_9">
    <path d="M 64.374219 533.877187 
L 64.374219 309.477187 
" style="fill:none;stroke:#000000;stroke-linecap:square;stroke-linejoin:miter;stroke-width:0.8;"/>
   </g>
   <g id="patch_10">
    <path d="M 64.374219 533.877187 
L 522.324219 533.877187 
" style="fill:none;stroke:#000000;stroke-linecap:square;stroke-linejoin:miter;stroke-width:0.8;"/>
   </g>
   <g id="text_32">
    <!-- Parks -->
    <defs>
     <path d="M 19.671875 64.796875 
L 19.671875 37.40625 
L 32.078125 37.40625 
Q 38.96875 37.40625 42.71875 40.96875 
Q 46.484375 44.53125 46.484375 51.125 
Q 46.484375 57.671875 42.71875 61.234375 
Q 38.96875 64.796875 32.078125 64.796875 
z
M 9.8125 72.90625 
L 32.078125 72.90625 
Q 44.34375 72.90625 50.609375 67.359375 
Q 56.890625 61.8125 56.890625 51.125 
Q 56.890625 40.328125 50.609375 34.8125 
Q 44.34375 29.296875 32.078125 29.296875 
L 19.671875 29.296875 
L 19.671875 0 
L 9.8125 0 
z
" id="DejaVuSans-80"/>
     <path d="M 9.078125 75.984375 
L 18.109375 75.984375 
L 18.109375 31.109375 
L 44.921875 54.6875 
L 56.390625 54.6875 
L 27.390625 29.109375 
L 57.625 0 
L 45.90625 0 
L 18.109375 26.703125 
L 18.109375 0 
L 9.078125 0 
z
" id="DejaVuSans-107"/>
    </defs>
    <g transform="translate(268.812969 303.477187)scale(0.18 -0.18)">
     <use xlink:href="#DejaVuSans-80"/>
     <use x="60.240234" xlink:href="#DejaVuSans-97"/>
     <use x="121.519531" xlink:href="#DejaVuSans-114"/>
     <use x="162.632812" xlink:href="#DejaVuSans-107"/>
     <use x="220.542969" xlink:href="#DejaVuSans-115"/>
    </g>
   </g>
  </g>
  <g id="axes_4">
   <g id="patch_11">
    <path d="M 596.274219 533.877187 
L 1054.224219 533.877187 
L 1054.224219 309.477187 
L 596.274219 309.477187 
z
" style="fill:#ffffff;"/>
   </g>
   <g id="matplotlib.axis_7">
    <g id="xtick_10">
     <g id="line2d_59">
      <path clip-path="url(#p3c4fa11eec)" d="M 685.714004 533.877187 
L 685.714004 309.477187 
" style="fill:none;stroke:#b0b0b0;stroke-linecap:square;stroke-width:0.8;"/>
     </g>
     <g id="line2d_60">
      <g>
       <use style="stroke:#000000;stroke-width:0.8;" x="685.714004" xlink:href="#mfe46ee6081" y="533.877187"/>
      </g>
     </g>
     <g id="text_33">
      <!-- 01-03-2020 -->
      <g transform="translate(642.127285 552.274844)scale(0.15 -0.15)">
       <use xlink:href="#DejaVuSans-48"/>
       <use x="63.623047" xlink:href="#DejaVuSans-49"/>
       <use x="127.246094" xlink:href="#DejaVuSans-45"/>
       <use x="163.330078" xlink:href="#DejaVuSans-48"/>
       <use x="226.953125" xlink:href="#DejaVuSans-51"/>
       <use x="290.576172" xlink:href="#DejaVuSans-45"/>
       <use x="326.660156" xlink:href="#DejaVuSans-50"/>
       <use x="390.283203" xlink:href="#DejaVuSans-48"/>
       <use x="453.90625" xlink:href="#DejaVuSans-50"/>
       <use x="517.529297" xlink:href="#DejaVuSans-48"/>
      </g>
     </g>
    </g>
    <g id="xtick_11">
     <g id="line2d_61">
      <path clip-path="url(#p3c4fa11eec)" d="M 827.536681 533.877187 
L 827.536681 309.477187 
" style="fill:none;stroke:#b0b0b0;stroke-linecap:square;stroke-width:0.8;"/>
     </g>
     <g id="line2d_62">
      <g>
       <use style="stroke:#000000;stroke-width:0.8;" x="827.536681" xlink:href="#mfe46ee6081" y="533.877187"/>
      </g>
     </g>
     <g id="text_34">
      <!-- 01-04-2020 -->
      <g transform="translate(783.949963 552.274844)scale(0.15 -0.15)">
       <use xlink:href="#DejaVuSans-48"/>
       <use x="63.623047" xlink:href="#DejaVuSans-49"/>
       <use x="127.246094" xlink:href="#DejaVuSans-45"/>
       <use x="163.330078" xlink:href="#DejaVuSans-48"/>
       <use x="226.953125" xlink:href="#DejaVuSans-52"/>
       <use x="290.576172" xlink:href="#DejaVuSans-45"/>
       <use x="326.660156" xlink:href="#DejaVuSans-50"/>
       <use x="390.283203" xlink:href="#DejaVuSans-48"/>
       <use x="453.90625" xlink:href="#DejaVuSans-50"/>
       <use x="517.529297" xlink:href="#DejaVuSans-48"/>
      </g>
     </g>
    </g>
    <g id="xtick_12">
     <g id="line2d_63">
      <path clip-path="url(#p3c4fa11eec)" d="M 964.784434 533.877187 
L 964.784434 309.477187 
" style="fill:none;stroke:#b0b0b0;stroke-linecap:square;stroke-width:0.8;"/>
     </g>
     <g id="line2d_64">
      <g>
       <use style="stroke:#000000;stroke-width:0.8;" x="964.784434" xlink:href="#mfe46ee6081" y="533.877187"/>
      </g>
     </g>
     <g id="text_35">
      <!-- 01-05-2020 -->
      <g transform="translate(921.197715 552.274844)scale(0.15 -0.15)">
       <use xlink:href="#DejaVuSans-48"/>
       <use x="63.623047" xlink:href="#DejaVuSans-49"/>
       <use x="127.246094" xlink:href="#DejaVuSans-45"/>
       <use x="163.330078" xlink:href="#DejaVuSans-48"/>
       <use x="226.953125" xlink:href="#DejaVuSans-53"/>
       <use x="290.576172" xlink:href="#DejaVuSans-45"/>
       <use x="326.660156" xlink:href="#DejaVuSans-50"/>
       <use x="390.283203" xlink:href="#DejaVuSans-48"/>
       <use x="453.90625" xlink:href="#DejaVuSans-50"/>
       <use x="517.529297" xlink:href="#DejaVuSans-48"/>
      </g>
     </g>
    </g>
   </g>
   <g id="matplotlib.axis_8">
    <g id="ytick_18">
     <g id="line2d_65">
      <path clip-path="url(#p3c4fa11eec)" d="M 596.274219 523.677187 
L 1054.224219 523.677187 
" style="fill:none;stroke:#b0b0b0;stroke-linecap:square;stroke-width:0.8;"/>
     </g>
     <g id="line2d_66">
      <g>
       <use style="stroke:#000000;stroke-width:0.8;" x="596.274219" xlink:href="#m6056d047d9" y="523.677187"/>
      </g>
     </g>
     <g id="text_36">
      <!-- −80 -->
      <g transform="translate(557.617188 529.376016)scale(0.15 -0.15)">
       <use xlink:href="#DejaVuSans-8722"/>
       <use x="83.789062" xlink:href="#DejaVuSans-56"/>
       <use x="147.412109" xlink:href="#DejaVuSans-48"/>
      </g>
     </g>
    </g>
    <g id="ytick_19">
     <g id="line2d_67">
      <path clip-path="url(#p3c4fa11eec)" d="M 596.274219 477.834491 
L 1054.224219 477.834491 
" style="fill:none;stroke:#b0b0b0;stroke-linecap:square;stroke-width:0.8;"/>
     </g>
     <g id="line2d_68">
      <g>
       <use style="stroke:#000000;stroke-width:0.8;" x="596.274219" xlink:href="#m6056d047d9" y="477.834491"/>
      </g>
     </g>
     <g id="text_37">
      <!-- −60 -->
      <g transform="translate(557.617188 483.533319)scale(0.15 -0.15)">
       <use xlink:href="#DejaVuSans-8722"/>
       <use x="83.789062" xlink:href="#DejaVuSans-54"/>
       <use x="147.412109" xlink:href="#DejaVuSans-48"/>
      </g>
     </g>
    </g>
    <g id="ytick_20">
     <g id="line2d_69">
      <path clip-path="url(#p3c4fa11eec)" d="M 596.274219 431.991794 
L 1054.224219 431.991794 
" style="fill:none;stroke:#b0b0b0;stroke-linecap:square;stroke-width:0.8;"/>
     </g>
     <g id="line2d_70">
      <g>
       <use style="stroke:#000000;stroke-width:0.8;" x="596.274219" xlink:href="#m6056d047d9" y="431.991794"/>
      </g>
     </g>
     <g id="text_38">
      <!-- −40 -->
      <g transform="translate(557.617188 437.690622)scale(0.15 -0.15)">
       <use xlink:href="#DejaVuSans-8722"/>
       <use x="83.789062" xlink:href="#DejaVuSans-52"/>
       <use x="147.412109" xlink:href="#DejaVuSans-48"/>
      </g>
     </g>
    </g>
    <g id="ytick_21">
     <g id="line2d_71">
      <path clip-path="url(#p3c4fa11eec)" d="M 596.274219 386.149098 
L 1054.224219 386.149098 
" style="fill:none;stroke:#b0b0b0;stroke-linecap:square;stroke-width:0.8;"/>
     </g>
     <g id="line2d_72">
      <g>
       <use style="stroke:#000000;stroke-width:0.8;" x="596.274219" xlink:href="#m6056d047d9" y="386.149098"/>
      </g>
     </g>
     <g id="text_39">
      <!-- −20 -->
      <g transform="translate(557.617188 391.847926)scale(0.15 -0.15)">
       <use xlink:href="#DejaVuSans-8722"/>
       <use x="83.789062" xlink:href="#DejaVuSans-50"/>
       <use x="147.412109" xlink:href="#DejaVuSans-48"/>
      </g>
     </g>
    </g>
    <g id="ytick_22">
     <g id="line2d_73">
      <path clip-path="url(#p3c4fa11eec)" d="M 596.274219 340.306401 
L 1054.224219 340.306401 
" style="fill:none;stroke:#b0b0b0;stroke-linecap:square;stroke-width:0.8;"/>
     </g>
     <g id="line2d_74">
      <g>
       <use style="stroke:#000000;stroke-width:0.8;" x="596.274219" xlink:href="#m6056d047d9" y="340.306401"/>
      </g>
     </g>
     <g id="text_40">
      <!-- 0 -->
      <g transform="translate(579.730469 346.005229)scale(0.15 -0.15)">
       <use xlink:href="#DejaVuSans-48"/>
      </g>
     </g>
    </g>
    <g id="text_41">
     <!-- % compared to baseline -->
     <g transform="translate(550.497656 512.730703)rotate(-90)scale(0.15 -0.15)">
      <use xlink:href="#DejaVuSans-37"/>
      <use x="95.019531" xlink:href="#DejaVuSans-32"/>
      <use x="126.806641" xlink:href="#DejaVuSans-99"/>
      <use x="181.787109" xlink:href="#DejaVuSans-111"/>
      <use x="242.96875" xlink:href="#DejaVuSans-109"/>
      <use x="340.380859" xlink:href="#DejaVuSans-112"/>
      <use x="403.857422" xlink:href="#DejaVuSans-97"/>
      <use x="465.136719" xlink:href="#DejaVuSans-114"/>
      <use x="506.21875" xlink:href="#DejaVuSans-101"/>
      <use x="567.742188" xlink:href="#DejaVuSans-100"/>
      <use x="631.21875" xlink:href="#DejaVuSans-32"/>
      <use x="663.005859" xlink:href="#DejaVuSans-116"/>
      <use x="702.214844" xlink:href="#DejaVuSans-111"/>
      <use x="763.396484" xlink:href="#DejaVuSans-32"/>
      <use x="795.183594" xlink:href="#DejaVuSans-98"/>
      <use x="858.660156" xlink:href="#DejaVuSans-97"/>
      <use x="919.939453" xlink:href="#DejaVuSans-115"/>
      <use x="972.039062" xlink:href="#DejaVuSans-101"/>
      <use x="1033.5625" xlink:href="#DejaVuSans-108"/>
      <use x="1061.345703" xlink:href="#DejaVuSans-105"/>
      <use x="1089.128906" xlink:href="#DejaVuSans-110"/>
      <use x="1152.507812" xlink:href="#DejaVuSans-101"/>
     </g>
    </g>
   </g>
   <g id="line2d_75">
    <path clip-path="url(#p3c4fa11eec)" d="M 617.090128 319.677187 
L 621.665053 347.182805 
L 626.239978 331.137862 
L 630.814903 326.553592 
L 635.389828 328.845727 
L 639.964753 333.429996 
L 644.539678 324.261457 
L 649.114603 335.722131 
L 653.689528 344.890671 
L 658.264454 365.519884 
L 662.839379 358.64348 
L 667.414304 365.519884 
L 671.989229 374.688423 
L 676.564154 363.227749 
L 681.139079 344.890671 
L 685.714004 328.845727 
L 690.288929 340.306401 
L 694.863854 338.014266 
L 699.438779 338.014266 
L 704.013704 344.890671 
L 708.588629 333.429996 
L 713.163554 321.969322 
L 717.738479 344.890671 
L 722.313405 342.598536 
L 726.88833 349.47494 
L 731.463255 349.47494 
L 736.03818 356.351345 
L 740.613105 376.980558 
L 745.18803 418.238985 
L 749.762955 418.238985 
L 754.33788 438.868199 
L 758.912805 445.744603 
L 763.48773 468.665952 
L 768.062655 493.879435 
L 772.63758 503.047974 
L 777.212505 493.879435 
L 781.787431 484.710895 
L 786.362356 500.755839 
L 790.937281 498.463704 
L 795.512206 498.463704 
L 800.087131 505.340109 
L 804.662056 500.755839 
L 809.236981 493.879435 
L 813.811906 514.508648 
L 818.386831 505.340109 
L 822.961756 503.047974 
L 827.536681 498.463704 
L 832.111606 507.632244 
L 836.686531 505.340109 
L 841.261457 487.00303 
L 845.836382 477.834491 
L 850.411307 498.463704 
L 854.986232 493.879435 
L 859.561157 491.5873 
L 864.136082 493.879435 
L 868.711007 493.879435 
L 873.285932 477.834491 
L 877.860857 480.126626 
L 882.435782 523.677187 
L 887.010707 500.755839 
L 891.585632 491.5873 
L 896.160557 493.879435 
L 900.735482 491.5873 
L 905.310408 493.879435 
L 909.885333 484.710895 
L 914.460258 489.295165 
L 919.035183 487.00303 
L 923.610108 484.710895 
L 928.185033 484.710895 
L 932.759958 487.00303 
L 937.334883 473.250221 
L 941.909808 464.081682 
L 946.484733 482.418761 
L 951.059658 496.17157 
L 955.634583 487.00303 
L 960.209508 487.00303 
L 964.784434 514.508648 
L 969.359359 477.834491 
L 973.934284 466.373817 
L 978.509209 475.542356 
L 983.084134 473.250221 
L 987.659059 466.373817 
L 992.233984 468.665952 
L 996.808909 468.665952 
L 1001.383834 445.744603 
L 1005.958759 457.205277 
L 1010.533684 464.081682 
L 1015.108609 454.913143 
L 1019.683534 454.913143 
L 1024.25846 452.621008 
L 1028.833385 443.452468 
L 1033.40831 422.823255 
" style="fill:none;stroke:#e69f00;stroke-linecap:square;stroke-width:3;"/>
   </g>
   <g id="line2d_76">
    <path clip-path="url(#p3c4fa11eec)" d="M 740.613105 533.877187 
L 740.613105 309.477187 
" style="fill:none;stroke:#000000;stroke-dasharray:11.1,4.8;stroke-dashoffset:0;stroke-width:3;"/>
   </g>
   <g id="patch_12">
    <path d="M 596.274219 533.877187 
L 596.274219 309.477187 
" style="fill:none;stroke:#000000;stroke-linecap:square;stroke-linejoin:miter;stroke-width:0.8;"/>
   </g>
   <g id="patch_13">
    <path d="M 596.274219 533.877187 
L 1054.224219 533.877187 
" style="fill:none;stroke:#000000;stroke-linecap:square;stroke-linejoin:miter;stroke-width:0.8;"/>
   </g>
   <g id="text_42">
    <!-- Transit stations -->
    <defs>
     <path d="M -0.296875 72.90625 
L 61.375 72.90625 
L 61.375 64.59375 
L 35.5 64.59375 
L 35.5 0 
L 25.59375 0 
L 25.59375 64.59375 
L -0.296875 64.59375 
z
" id="DejaVuSans-84"/>
    </defs>
    <g transform="translate(755.615938 303.477187)scale(0.18 -0.18)">
     <use xlink:href="#DejaVuSans-84"/>
     <use x="60.865234" xlink:href="#DejaVuSans-114"/>
     <use x="101.978516" xlink:href="#DejaVuSans-97"/>
     <use x="163.257812" xlink:href="#DejaVuSans-110"/>
     <use x="226.636719" xlink:href="#DejaVuSans-115"/>
     <use x="278.736328" xlink:href="#DejaVuSans-105"/>
     <use x="306.519531" xlink:href="#DejaVuSans-116"/>
     <use x="345.728516" xlink:href="#DejaVuSans-32"/>
     <use x="377.515625" xlink:href="#DejaVuSans-115"/>
     <use x="429.615234" xlink:href="#DejaVuSans-116"/>
     <use x="468.824219" xlink:href="#DejaVuSans-97"/>
     <use x="530.103516" xlink:href="#DejaVuSans-116"/>
     <use x="569.3125" xlink:href="#DejaVuSans-105"/>
     <use x="597.095703" xlink:href="#DejaVuSans-111"/>
     <use x="658.277344" xlink:href="#DejaVuSans-110"/>
     <use x="721.65625" xlink:href="#DejaVuSans-115"/>
    </g>
   </g>
  </g>
  <g id="axes_5">
   <g id="patch_14">
    <path d="M 64.374219 816.477187 
L 522.324219 816.477187 
L 522.324219 592.077187 
L 64.374219 592.077187 
z
" style="fill:#ffffff;"/>
   </g>
   <g id="matplotlib.axis_9">
    <g id="xtick_13">
     <g id="line2d_77">
      <path clip-path="url(#pd755ff7fd6)" d="M 153.814004 816.477187 
L 153.814004 592.077187 
" style="fill:none;stroke:#b0b0b0;stroke-linecap:square;stroke-width:0.8;"/>
     </g>
     <g id="line2d_78">
      <g>
       <use style="stroke:#000000;stroke-width:0.8;" x="153.814004" xlink:href="#mfe46ee6081" y="816.477187"/>
      </g>
     </g>
     <g id="text_43">
      <!-- 01-03-2020 -->
      <g transform="translate(110.227285 834.874844)scale(0.15 -0.15)">
       <use xlink:href="#DejaVuSans-48"/>
       <use x="63.623047" xlink:href="#DejaVuSans-49"/>
       <use x="127.246094" xlink:href="#DejaVuSans-45"/>
       <use x="163.330078" xlink:href="#DejaVuSans-48"/>
       <use x="226.953125" xlink:href="#DejaVuSans-51"/>
       <use x="290.576172" xlink:href="#DejaVuSans-45"/>
       <use x="326.660156" xlink:href="#DejaVuSans-50"/>
       <use x="390.283203" xlink:href="#DejaVuSans-48"/>
       <use x="453.90625" xlink:href="#DejaVuSans-50"/>
       <use x="517.529297" xlink:href="#DejaVuSans-48"/>
      </g>
     </g>
    </g>
    <g id="xtick_14">
     <g id="line2d_79">
      <path clip-path="url(#pd755ff7fd6)" d="M 295.636681 816.477187 
L 295.636681 592.077187 
" style="fill:none;stroke:#b0b0b0;stroke-linecap:square;stroke-width:0.8;"/>
     </g>
     <g id="line2d_80">
      <g>
       <use style="stroke:#000000;stroke-width:0.8;" x="295.636681" xlink:href="#mfe46ee6081" y="816.477187"/>
      </g>
     </g>
     <g id="text_44">
      <!-- 01-04-2020 -->
      <g transform="translate(252.049963 834.874844)scale(0.15 -0.15)">
       <use xlink:href="#DejaVuSans-48"/>
       <use x="63.623047" xlink:href="#DejaVuSans-49"/>
       <use x="127.246094" xlink:href="#DejaVuSans-45"/>
       <use x="163.330078" xlink:href="#DejaVuSans-48"/>
       <use x="226.953125" xlink:href="#DejaVuSans-52"/>
       <use x="290.576172" xlink:href="#DejaVuSans-45"/>
       <use x="326.660156" xlink:href="#DejaVuSans-50"/>
       <use x="390.283203" xlink:href="#DejaVuSans-48"/>
       <use x="453.90625" xlink:href="#DejaVuSans-50"/>
       <use x="517.529297" xlink:href="#DejaVuSans-48"/>
      </g>
     </g>
    </g>
    <g id="xtick_15">
     <g id="line2d_81">
      <path clip-path="url(#pd755ff7fd6)" d="M 432.884434 816.477187 
L 432.884434 592.077187 
" style="fill:none;stroke:#b0b0b0;stroke-linecap:square;stroke-width:0.8;"/>
     </g>
     <g id="line2d_82">
      <g>
       <use style="stroke:#000000;stroke-width:0.8;" x="432.884434" xlink:href="#mfe46ee6081" y="816.477187"/>
      </g>
     </g>
     <g id="text_45">
      <!-- 01-05-2020 -->
      <g transform="translate(389.297715 834.874844)scale(0.15 -0.15)">
       <use xlink:href="#DejaVuSans-48"/>
       <use x="63.623047" xlink:href="#DejaVuSans-49"/>
       <use x="127.246094" xlink:href="#DejaVuSans-45"/>
       <use x="163.330078" xlink:href="#DejaVuSans-48"/>
       <use x="226.953125" xlink:href="#DejaVuSans-53"/>
       <use x="290.576172" xlink:href="#DejaVuSans-45"/>
       <use x="326.660156" xlink:href="#DejaVuSans-50"/>
       <use x="390.283203" xlink:href="#DejaVuSans-48"/>
       <use x="453.90625" xlink:href="#DejaVuSans-50"/>
       <use x="517.529297" xlink:href="#DejaVuSans-48"/>
      </g>
     </g>
    </g>
   </g>
   <g id="matplotlib.axis_10">
    <g id="ytick_23">
     <g id="line2d_83">
      <path clip-path="url(#pd755ff7fd6)" d="M 64.374219 788.538057 
L 522.324219 788.538057 
" style="fill:none;stroke:#b0b0b0;stroke-linecap:square;stroke-width:0.8;"/>
     </g>
     <g id="line2d_84">
      <g>
       <use style="stroke:#000000;stroke-width:0.8;" x="64.374219" xlink:href="#m6056d047d9" y="788.538057"/>
      </g>
     </g>
     <g id="text_46">
      <!-- −80 -->
      <g transform="translate(25.717188 794.236885)scale(0.15 -0.15)">
       <use xlink:href="#DejaVuSans-8722"/>
       <use x="83.789062" xlink:href="#DejaVuSans-56"/>
       <use x="147.412109" xlink:href="#DejaVuSans-48"/>
      </g>
     </g>
    </g>
    <g id="ytick_24">
     <g id="line2d_85">
      <path clip-path="url(#pd755ff7fd6)" d="M 64.374219 744.190231 
L 522.324219 744.190231 
" style="fill:none;stroke:#b0b0b0;stroke-linecap:square;stroke-width:0.8;"/>
     </g>
     <g id="line2d_86">
      <g>
       <use style="stroke:#000000;stroke-width:0.8;" x="64.374219" xlink:href="#m6056d047d9" y="744.190231"/>
      </g>
     </g>
     <g id="text_47">
      <!-- −60 -->
      <g transform="translate(25.717188 749.889059)scale(0.15 -0.15)">
       <use xlink:href="#DejaVuSans-8722"/>
       <use x="83.789062" xlink:href="#DejaVuSans-54"/>
       <use x="147.412109" xlink:href="#DejaVuSans-48"/>
      </g>
     </g>
    </g>
    <g id="ytick_25">
     <g id="line2d_87">
      <path clip-path="url(#pd755ff7fd6)" d="M 64.374219 699.842405 
L 522.324219 699.842405 
" style="fill:none;stroke:#b0b0b0;stroke-linecap:square;stroke-width:0.8;"/>
     </g>
     <g id="line2d_88">
      <g>
       <use style="stroke:#000000;stroke-width:0.8;" x="64.374219" xlink:href="#m6056d047d9" y="699.842405"/>
      </g>
     </g>
     <g id="text_48">
      <!-- −40 -->
      <g transform="translate(25.717188 705.541233)scale(0.15 -0.15)">
       <use xlink:href="#DejaVuSans-8722"/>
       <use x="83.789062" xlink:href="#DejaVuSans-52"/>
       <use x="147.412109" xlink:href="#DejaVuSans-48"/>
      </g>
     </g>
    </g>
    <g id="ytick_26">
     <g id="line2d_89">
      <path clip-path="url(#pd755ff7fd6)" d="M 64.374219 655.494579 
L 522.324219 655.494579 
" style="fill:none;stroke:#b0b0b0;stroke-linecap:square;stroke-width:0.8;"/>
     </g>
     <g id="line2d_90">
      <g>
       <use style="stroke:#000000;stroke-width:0.8;" x="64.374219" xlink:href="#m6056d047d9" y="655.494579"/>
      </g>
     </g>
     <g id="text_49">
      <!-- −20 -->
      <g transform="translate(25.717188 661.193407)scale(0.15 -0.15)">
       <use xlink:href="#DejaVuSans-8722"/>
       <use x="83.789062" xlink:href="#DejaVuSans-50"/>
       <use x="147.412109" xlink:href="#DejaVuSans-48"/>
      </g>
     </g>
    </g>
    <g id="ytick_27">
     <g id="line2d_91">
      <path clip-path="url(#pd755ff7fd6)" d="M 64.374219 611.146753 
L 522.324219 611.146753 
" style="fill:none;stroke:#b0b0b0;stroke-linecap:square;stroke-width:0.8;"/>
     </g>
     <g id="line2d_92">
      <g>
       <use style="stroke:#000000;stroke-width:0.8;" x="64.374219" xlink:href="#m6056d047d9" y="611.146753"/>
      </g>
     </g>
     <g id="text_50">
      <!-- 0 -->
      <g transform="translate(47.830469 616.845581)scale(0.15 -0.15)">
       <use xlink:href="#DejaVuSans-48"/>
      </g>
     </g>
    </g>
    <g id="text_51">
     <!-- % compared to baseline -->
     <g transform="translate(18.597656 795.330703)rotate(-90)scale(0.15 -0.15)">
      <use xlink:href="#DejaVuSans-37"/>
      <use x="95.019531" xlink:href="#DejaVuSans-32"/>
      <use x="126.806641" xlink:href="#DejaVuSans-99"/>
      <use x="181.787109" xlink:href="#DejaVuSans-111"/>
      <use x="242.96875" xlink:href="#DejaVuSans-109"/>
      <use x="340.380859" xlink:href="#DejaVuSans-112"/>
      <use x="403.857422" xlink:href="#DejaVuSans-97"/>
      <use x="465.136719" xlink:href="#DejaVuSans-114"/>
      <use x="506.21875" xlink:href="#DejaVuSans-101"/>
      <use x="567.742188" xlink:href="#DejaVuSans-100"/>
      <use x="631.21875" xlink:href="#DejaVuSans-32"/>
      <use x="663.005859" xlink:href="#DejaVuSans-116"/>
      <use x="702.214844" xlink:href="#DejaVuSans-111"/>
      <use x="763.396484" xlink:href="#DejaVuSans-32"/>
      <use x="795.183594" xlink:href="#DejaVuSans-98"/>
      <use x="858.660156" xlink:href="#DejaVuSans-97"/>
      <use x="919.939453" xlink:href="#DejaVuSans-115"/>
      <use x="972.039062" xlink:href="#DejaVuSans-101"/>
      <use x="1033.5625" xlink:href="#DejaVuSans-108"/>
      <use x="1061.345703" xlink:href="#DejaVuSans-105"/>
      <use x="1089.128906" xlink:href="#DejaVuSans-110"/>
      <use x="1152.507812" xlink:href="#DejaVuSans-101"/>
     </g>
    </g>
   </g>
   <g id="line2d_93">
    <path clip-path="url(#pd755ff7fd6)" d="M 85.190128 608.929361 
L 89.765053 617.798927 
L 94.339978 602.277187 
L 98.914903 602.277187 
L 103.489828 602.277187 
L 108.064753 604.494579 
L 112.639678 606.71197 
L 117.214603 615.581535 
L 121.789528 620.016318 
L 126.364454 664.364144 
L 130.939379 662.146753 
L 135.514304 657.71197 
L 140.089229 662.146753 
L 144.664154 662.146753 
L 149.239079 622.233709 
L 153.814004 613.364144 
L 158.388929 604.494579 
L 162.963854 602.277187 
L 167.538779 602.277187 
L 172.113704 606.71197 
L 176.688629 606.71197 
L 181.263554 606.71197 
L 185.838479 613.364144 
L 190.413405 606.71197 
L 194.98833 608.929361 
L 199.563255 608.929361 
L 204.13818 613.364144 
L 208.713105 626.668492 
L 213.28803 671.016318 
L 217.862955 675.451101 
L 222.43788 690.97284 
L 227.012805 710.929361 
L 231.58773 726.451101 
L 236.162655 746.407622 
L 240.73758 748.625014 
L 245.312505 724.233709 
L 249.887431 717.581535 
L 254.462356 755.277187 
L 259.037281 757.494579 
L 263.612206 755.277187 
L 268.187131 757.494579 
L 272.762056 755.277187 
L 277.336981 724.233709 
L 281.911906 726.451101 
L 286.486831 757.494579 
L 291.061756 757.494579 
L 295.636681 753.059796 
L 300.211606 757.494579 
L 304.786531 755.277187 
L 309.361457 722.016318 
L 313.936382 713.146753 
L 318.511307 757.494579 
L 323.086232 757.494579 
L 327.661157 753.059796 
L 332.236082 757.494579 
L 336.811007 757.494579 
L 341.385932 715.364144 
L 345.960857 710.929361 
L 350.535782 806.277187 
L 355.110707 757.494579 
L 359.685632 753.059796 
L 364.260557 755.277187 
L 368.835482 750.842405 
L 373.410408 710.929361 
L 377.985333 702.059796 
L 382.560258 744.190231 
L 387.135183 744.190231 
L 391.710108 739.755448 
L 396.285033 744.190231 
L 400.859958 741.97284 
L 405.434883 697.625014 
L 410.009808 690.97284 
L 414.584733 739.755448 
L 419.159658 739.755448 
L 423.734583 735.320666 
L 428.309508 737.538057 
L 432.884434 795.190231 
L 437.459359 693.190231 
L 442.034284 684.320666 
L 446.609209 728.668492 
L 451.184134 728.668492 
L 455.759059 724.233709 
L 460.333984 726.451101 
L 464.908909 724.233709 
L 469.483834 673.233709 
L 474.058759 648.842405 
L 478.633684 717.581535 
L 483.208609 715.364144 
L 487.783534 713.146753 
L 492.35846 715.364144 
L 496.933385 708.71197 
L 501.50831 651.059796 
" style="fill:none;stroke:#e69f00;stroke-linecap:square;stroke-width:3;"/>
   </g>
   <g id="line2d_94">
    <path clip-path="url(#pd755ff7fd6)" d="M 208.713105 816.477187 
L 208.713105 592.077187 
" style="fill:none;stroke:#000000;stroke-dasharray:11.1,4.8;stroke-dashoffset:0;stroke-width:3;"/>
   </g>
   <g id="patch_15">
    <path d="M 64.374219 816.477187 
L 64.374219 592.077187 
" style="fill:none;stroke:#000000;stroke-linecap:square;stroke-linejoin:miter;stroke-width:0.8;"/>
   </g>
   <g id="patch_16">
    <path d="M 64.374219 816.477187 
L 522.324219 816.477187 
" style="fill:none;stroke:#000000;stroke-linecap:square;stroke-linejoin:miter;stroke-width:0.8;"/>
   </g>
   <g id="text_52">
    <!-- Workplaces -->
    <defs>
     <path d="M 3.328125 72.90625 
L 13.28125 72.90625 
L 28.609375 11.28125 
L 43.890625 72.90625 
L 54.984375 72.90625 
L 70.3125 11.28125 
L 85.59375 72.90625 
L 95.609375 72.90625 
L 77.296875 0 
L 64.890625 0 
L 49.515625 63.28125 
L 33.984375 0 
L 21.578125 0 
z
" id="DejaVuSans-87"/>
    </defs>
    <g transform="translate(241.135156 586.077187)scale(0.18 -0.18)">
     <use xlink:href="#DejaVuSans-87"/>
     <use x="98.798828" xlink:href="#DejaVuSans-111"/>
     <use x="159.980469" xlink:href="#DejaVuSans-114"/>
     <use x="201.09375" xlink:href="#DejaVuSans-107"/>
     <use x="259.003906" xlink:href="#DejaVuSans-112"/>
     <use x="322.480469" xlink:href="#DejaVuSans-108"/>
     <use x="350.263672" xlink:href="#DejaVuSans-97"/>
     <use x="411.542969" xlink:href="#DejaVuSans-99"/>
     <use x="466.523438" xlink:href="#DejaVuSans-101"/>
     <use x="528.046875" xlink:href="#DejaVuSans-115"/>
    </g>
   </g>
  </g>
  <g id="axes_6">
   <g id="patch_17">
    <path d="M 596.274219 816.477187 
L 1054.224219 816.477187 
L 1054.224219 592.077187 
L 596.274219 592.077187 
z
" style="fill:#ffffff;"/>
   </g>
   <g id="matplotlib.axis_11">
    <g id="xtick_16">
     <g id="line2d_95">
      <path clip-path="url(#pe98429dd34)" d="M 685.714004 816.477187 
L 685.714004 592.077187 
" style="fill:none;stroke:#b0b0b0;stroke-linecap:square;stroke-width:0.8;"/>
     </g>
     <g id="line2d_96">
      <g>
       <use style="stroke:#000000;stroke-width:0.8;" x="685.714004" xlink:href="#mfe46ee6081" y="816.477187"/>
      </g>
     </g>
     <g id="text_53">
      <!-- 01-03-2020 -->
      <g transform="translate(642.127285 834.874844)scale(0.15 -0.15)">
       <use xlink:href="#DejaVuSans-48"/>
       <use x="63.623047" xlink:href="#DejaVuSans-49"/>
       <use x="127.246094" xlink:href="#DejaVuSans-45"/>
       <use x="163.330078" xlink:href="#DejaVuSans-48"/>
       <use x="226.953125" xlink:href="#DejaVuSans-51"/>
       <use x="290.576172" xlink:href="#DejaVuSans-45"/>
       <use x="326.660156" xlink:href="#DejaVuSans-50"/>
       <use x="390.283203" xlink:href="#DejaVuSans-48"/>
       <use x="453.90625" xlink:href="#DejaVuSans-50"/>
       <use x="517.529297" xlink:href="#DejaVuSans-48"/>
      </g>
     </g>
    </g>
    <g id="xtick_17">
     <g id="line2d_97">
      <path clip-path="url(#pe98429dd34)" d="M 827.536681 816.477187 
L 827.536681 592.077187 
" style="fill:none;stroke:#b0b0b0;stroke-linecap:square;stroke-width:0.8;"/>
     </g>
     <g id="line2d_98">
      <g>
       <use style="stroke:#000000;stroke-width:0.8;" x="827.536681" xlink:href="#mfe46ee6081" y="816.477187"/>
      </g>
     </g>
     <g id="text_54">
      <!-- 01-04-2020 -->
      <g transform="translate(783.949963 834.874844)scale(0.15 -0.15)">
       <use xlink:href="#DejaVuSans-48"/>
       <use x="63.623047" xlink:href="#DejaVuSans-49"/>
       <use x="127.246094" xlink:href="#DejaVuSans-45"/>
       <use x="163.330078" xlink:href="#DejaVuSans-48"/>
       <use x="226.953125" xlink:href="#DejaVuSans-52"/>
       <use x="290.576172" xlink:href="#DejaVuSans-45"/>
       <use x="326.660156" xlink:href="#DejaVuSans-50"/>
       <use x="390.283203" xlink:href="#DejaVuSans-48"/>
       <use x="453.90625" xlink:href="#DejaVuSans-50"/>
       <use x="517.529297" xlink:href="#DejaVuSans-48"/>
      </g>
     </g>
    </g>
    <g id="xtick_18">
     <g id="line2d_99">
      <path clip-path="url(#pe98429dd34)" d="M 964.784434 816.477187 
L 964.784434 592.077187 
" style="fill:none;stroke:#b0b0b0;stroke-linecap:square;stroke-width:0.8;"/>
     </g>
     <g id="line2d_100">
      <g>
       <use style="stroke:#000000;stroke-width:0.8;" x="964.784434" xlink:href="#mfe46ee6081" y="816.477187"/>
      </g>
     </g>
     <g id="text_55">
      <!-- 01-05-2020 -->
      <g transform="translate(921.197715 834.874844)scale(0.15 -0.15)">
       <use xlink:href="#DejaVuSans-48"/>
       <use x="63.623047" xlink:href="#DejaVuSans-49"/>
       <use x="127.246094" xlink:href="#DejaVuSans-45"/>
       <use x="163.330078" xlink:href="#DejaVuSans-48"/>
       <use x="226.953125" xlink:href="#DejaVuSans-53"/>
       <use x="290.576172" xlink:href="#DejaVuSans-45"/>
       <use x="326.660156" xlink:href="#DejaVuSans-50"/>
       <use x="390.283203" xlink:href="#DejaVuSans-48"/>
       <use x="453.90625" xlink:href="#DejaVuSans-50"/>
       <use x="517.529297" xlink:href="#DejaVuSans-48"/>
      </g>
     </g>
    </g>
   </g>
   <g id="matplotlib.axis_12">
    <g id="ytick_28">
     <g id="line2d_101">
      <path clip-path="url(#pe98429dd34)" d="M 596.274219 800.908766 
L 1054.224219 800.908766 
" style="fill:none;stroke:#b0b0b0;stroke-linecap:square;stroke-width:0.8;"/>
     </g>
     <g id="line2d_102">
      <g>
       <use style="stroke:#000000;stroke-width:0.8;" x="596.274219" xlink:href="#m6056d047d9" y="800.908766"/>
      </g>
     </g>
     <g id="text_56">
      <!-- 0 -->
      <g transform="translate(579.730469 806.607595)scale(0.15 -0.15)">
       <use xlink:href="#DejaVuSans-48"/>
      </g>
     </g>
    </g>
    <g id="ytick_29">
     <g id="line2d_103">
      <path clip-path="url(#pe98429dd34)" d="M 596.274219 747.224556 
L 1054.224219 747.224556 
" style="fill:none;stroke:#b0b0b0;stroke-linecap:square;stroke-width:0.8;"/>
     </g>
     <g id="line2d_104">
      <g>
       <use style="stroke:#000000;stroke-width:0.8;" x="596.274219" xlink:href="#m6056d047d9" y="747.224556"/>
      </g>
     </g>
     <g id="text_57">
      <!-- 10 -->
      <g transform="translate(570.186719 752.923384)scale(0.15 -0.15)">
       <use xlink:href="#DejaVuSans-49"/>
       <use x="63.623047" xlink:href="#DejaVuSans-48"/>
      </g>
     </g>
    </g>
    <g id="ytick_30">
     <g id="line2d_105">
      <path clip-path="url(#pe98429dd34)" d="M 596.274219 693.540345 
L 1054.224219 693.540345 
" style="fill:none;stroke:#b0b0b0;stroke-linecap:square;stroke-width:0.8;"/>
     </g>
     <g id="line2d_106">
      <g>
       <use style="stroke:#000000;stroke-width:0.8;" x="596.274219" xlink:href="#m6056d047d9" y="693.540345"/>
      </g>
     </g>
     <g id="text_58">
      <!-- 20 -->
      <g transform="translate(570.186719 699.239174)scale(0.15 -0.15)">
       <use xlink:href="#DejaVuSans-50"/>
       <use x="63.623047" xlink:href="#DejaVuSans-48"/>
      </g>
     </g>
    </g>
    <g id="ytick_31">
     <g id="line2d_107">
      <path clip-path="url(#pe98429dd34)" d="M 596.274219 639.856135 
L 1054.224219 639.856135 
" style="fill:none;stroke:#b0b0b0;stroke-linecap:square;stroke-width:0.8;"/>
     </g>
     <g id="line2d_108">
      <g>
       <use style="stroke:#000000;stroke-width:0.8;" x="596.274219" xlink:href="#m6056d047d9" y="639.856135"/>
      </g>
     </g>
     <g id="text_59">
      <!-- 30 -->
      <g transform="translate(570.186719 645.554963)scale(0.15 -0.15)">
       <use xlink:href="#DejaVuSans-51"/>
       <use x="63.623047" xlink:href="#DejaVuSans-48"/>
      </g>
     </g>
    </g>
    <g id="text_60">
     <!-- % compared to baseline -->
     <g transform="translate(563.067188 795.330703)rotate(-90)scale(0.15 -0.15)">
      <use xlink:href="#DejaVuSans-37"/>
      <use x="95.019531" xlink:href="#DejaVuSans-32"/>
      <use x="126.806641" xlink:href="#DejaVuSans-99"/>
      <use x="181.787109" xlink:href="#DejaVuSans-111"/>
      <use x="242.96875" xlink:href="#DejaVuSans-109"/>
      <use x="340.380859" xlink:href="#DejaVuSans-112"/>
      <use x="403.857422" xlink:href="#DejaVuSans-97"/>
      <use x="465.136719" xlink:href="#DejaVuSans-114"/>
      <use x="506.21875" xlink:href="#DejaVuSans-101"/>
      <use x="567.742188" xlink:href="#DejaVuSans-100"/>
      <use x="631.21875" xlink:href="#DejaVuSans-32"/>
      <use x="663.005859" xlink:href="#DejaVuSans-116"/>
      <use x="702.214844" xlink:href="#DejaVuSans-111"/>
      <use x="763.396484" xlink:href="#DejaVuSans-32"/>
      <use x="795.183594" xlink:href="#DejaVuSans-98"/>
      <use x="858.660156" xlink:href="#DejaVuSans-97"/>
      <use x="919.939453" xlink:href="#DejaVuSans-115"/>
      <use x="972.039062" xlink:href="#DejaVuSans-101"/>
      <use x="1033.5625" xlink:href="#DejaVuSans-108"/>
      <use x="1061.345703" xlink:href="#DejaVuSans-105"/>
      <use x="1089.128906" xlink:href="#DejaVuSans-110"/>
      <use x="1152.507812" xlink:href="#DejaVuSans-101"/>
     </g>
    </g>
   </g>
   <g id="line2d_109">
    <path clip-path="url(#pe98429dd34)" d="M 617.090128 806.277187 
L 621.665053 795.540345 
L 626.239978 800.908766 
L 630.814903 800.908766 
L 635.389828 800.908766 
L 639.964753 800.908766 
L 644.539678 800.908766 
L 649.114603 800.908766 
L 653.689528 800.908766 
L 658.264454 779.435082 
L 662.839379 779.435082 
L 667.414304 784.803503 
L 671.989229 768.69824 
L 676.564154 774.066661 
L 681.139079 795.540345 
L 685.714004 800.908766 
L 690.288929 800.908766 
L 694.863854 800.908766 
L 699.438779 800.908766 
L 704.013704 790.171924 
L 708.588629 795.540345 
L 713.163554 800.908766 
L 717.738479 800.908766 
L 722.313405 800.908766 
L 726.88833 790.171924 
L 731.463255 790.171924 
L 736.03818 784.803503 
L 740.613105 774.066661 
L 745.18803 736.487714 
L 749.762955 757.961398 
L 754.33788 725.750872 
L 758.912805 715.01403 
L 763.48773 693.540345 
L 768.062655 655.961398 
L 772.63758 634.487714 
L 777.212505 682.803503 
L 781.787431 720.382451 
L 786.362356 661.329819 
L 790.937281 655.961398 
L 795.512206 661.329819 
L 800.087131 645.224556 
L 804.662056 634.487714 
L 809.236981 682.803503 
L 813.811906 709.645609 
L 818.386831 655.961398 
L 822.961756 650.592977 
L 827.536681 661.329819 
L 832.111606 639.856135 
L 836.686531 629.119293 
L 841.261457 682.803503 
L 845.836382 720.382451 
L 850.411307 661.329819 
L 854.986232 661.329819 
L 859.561157 672.066661 
L 864.136082 655.961398 
L 868.711007 639.856135 
L 873.285932 693.540345 
L 877.860857 720.382451 
L 882.435782 613.01403 
L 887.010707 655.961398 
L 891.585632 666.69824 
L 896.160557 655.961398 
L 900.735482 639.856135 
L 905.310408 682.803503 
L 909.885333 720.382451 
L 914.460258 672.066661 
L 919.035183 666.69824 
L 923.610108 677.435082 
L 928.185033 666.69824 
L 932.759958 650.592977 
L 937.334883 698.908766 
L 941.909808 731.119293 
L 946.484733 677.435082 
L 951.059658 672.066661 
L 955.634583 677.435082 
L 960.209508 666.69824 
L 964.784434 602.277187 
L 969.359359 698.908766 
L 973.934284 731.119293 
L 978.509209 688.171924 
L 983.084134 688.171924 
L 987.659059 698.908766 
L 992.233984 682.803503 
L 996.808909 672.066661 
L 1001.383834 720.382451 
L 1005.958759 747.224556 
L 1010.533684 698.908766 
L 1015.108609 698.908766 
L 1019.683534 704.277187 
L 1024.25846 698.908766 
L 1028.833385 688.171924 
L 1033.40831 731.119293 
" style="fill:none;stroke:#e69f00;stroke-linecap:square;stroke-width:3;"/>
   </g>
   <g id="line2d_110">
    <path clip-path="url(#pe98429dd34)" d="M 740.613105 816.477187 
L 740.613105 592.077187 
" style="fill:none;stroke:#000000;stroke-dasharray:11.1,4.8;stroke-dashoffset:0;stroke-width:3;"/>
   </g>
   <g id="patch_18">
    <path d="M 596.274219 816.477187 
L 596.274219 592.077187 
" style="fill:none;stroke:#000000;stroke-linecap:square;stroke-linejoin:miter;stroke-width:0.8;"/>
   </g>
   <g id="patch_19">
    <path d="M 596.274219 816.477187 
L 1054.224219 816.477187 
" style="fill:none;stroke:#000000;stroke-linecap:square;stroke-linejoin:miter;stroke-width:0.8;"/>
   </g>
   <g id="text_61">
    <!-- Residential -->
    <g transform="translate(775.275313 586.077187)scale(0.18 -0.18)">
     <use xlink:href="#DejaVuSans-82"/>
     <use x="69.419922" xlink:href="#DejaVuSans-101"/>
     <use x="130.943359" xlink:href="#DejaVuSans-115"/>
     <use x="183.042969" xlink:href="#DejaVuSans-105"/>
     <use x="210.826172" xlink:href="#DejaVuSans-100"/>
     <use x="274.302734" xlink:href="#DejaVuSans-101"/>
     <use x="335.826172" xlink:href="#DejaVuSans-110"/>
     <use x="399.205078" xlink:href="#DejaVuSans-116"/>
     <use x="438.414062" xlink:href="#DejaVuSans-105"/>
     <use x="466.197266" xlink:href="#DejaVuSans-97"/>
     <use x="527.476562" xlink:href="#DejaVuSans-108"/>
    </g>
   </g>
  </g>
 </g>
 <defs>
  <clipPath id="p633e325c1c">
   <rect height="224.4" width="457.95" x="64.374219" y="26.877187"/>
  </clipPath>
  <clipPath id="p86b3eef720">
   <rect height="224.4" width="457.95" x="596.274219" y="26.877187"/>
  </clipPath>
  <clipPath id="pcce7805b2b">
   <rect height="224.4" width="457.95" x="64.374219" y="309.477187"/>
  </clipPath>
  <clipPath id="p3c4fa11eec">
   <rect height="224.4" width="457.95" x="596.274219" y="309.477187"/>
  </clipPath>
  <clipPath id="pd755ff7fd6">
   <rect height="224.4" width="457.95" x="64.374219" y="592.077187"/>
  </clipPath>
  <clipPath id="pe98429dd34">
   <rect height="224.4" width="457.95" x="596.274219" y="592.077187"/>
  </clipPath>
 </defs>
</svg>
